<svg width="20" height="20" viewBox="0 0 20 20" fill="none" xmlns="http://www.w3.org/2000/svg">
<path d="M12.5 20C13.4946 20 14.4484 19.6049 15.1517 18.9017C15.8549 18.1984 16.25 17.2446 16.25 16.25V12.5H13.75V16.25C13.75 16.5815 13.6183 16.8995 13.3839 17.1339C13.1495 17.3683 12.8315 17.5 12.5 17.5H3.75C3.41848 17.5 3.10054 17.3683 2.86612 17.1339C2.6317 16.8995 2.5 16.5815 2.5 16.25V7.5C2.5 7.16848 2.6317 6.85054 2.86612 6.61612C3.10054 6.3817 3.41848 6.25 3.75 6.25H7.5V3.75H3.75C2.75544 3.75 1.80161 4.14509 1.09835 4.84835C0.395088 5.55161 0 6.50544 0 7.5V16.25C0 17.2446 0.395088 18.1984 1.09835 18.9017C1.80161 19.6049 2.75544 20 3.75 20H12.5Z" fill="#31ACB8"/>
<path d="M16.25 0H13.75V3.75H10V6.25H13.75V10H16.25V6.25H20V3.75H16.25V0Z" fill="#31ACB8"/>
</svg>
