<svg width="40" height="41" viewBox="0 0 40 41" xmlns="http://www.w3.org/2000/svg">
<path d="M31.9999 20.9981C31.9999 20.813 31.888 20.5672 31.7744 20.4479L25.3745 13.6478C25.0757 13.3388 24.5916 13.303 24.2432 13.6166C23.9318 13.8968 23.924 14.4435 24.212 14.7478L29.3494 20.1979H8.8C8.35816 20.1979 8 20.5561 8 20.9979C8 21.4398 8.35816 21.798 8.8 21.798H29.3494L24.212 27.2481C23.9241 27.5524 23.9445 28.0856 24.2432 28.3793C24.5586 28.6894 25.0802 28.6618 25.3745 28.3481L31.7744 21.548C31.9624 21.3636 31.9968 21.1859 31.9999 20.9981Z"/>
</svg>
