<svg width="40" height="41" viewBox="0 0 40 41" xmlns="http://www.w3.org/2000/svg">
<path d="M34.1504 13.5314C34.1409 13.4875 34.1409 13.442 34.1504 13.3981C34.1423 13.3596 34.1423 13.3199 34.1504 13.2814V13.1314L34.0504 12.8814C34.0097 12.8132 33.9592 12.7514 33.9004 12.6981L33.7504 12.5647H33.667L27.1004 8.41473L20.9004 4.58139C20.7569 4.46761 20.5928 4.38271 20.417 4.33139H20.2837C20.1347 4.30653 19.9827 4.30653 19.8337 4.33139H19.667C19.4734 4.37421 19.2878 4.44734 19.117 4.54806L6.66702 12.2981L6.51702 12.4147L6.36702 12.5481L6.20036 12.6647L6.11702 12.7647L6.01702 13.0147V13.1647V13.2647C6.00084 13.3752 6.00084 13.4875 6.01702 13.5981V28.1481C6.01646 28.4313 6.08808 28.71 6.22514 28.9579C6.3622 29.2058 6.56017 29.4146 6.80036 29.5647L19.3004 37.2981L19.5504 37.3981H19.6837C19.9657 37.4875 20.2684 37.4875 20.5504 37.3981H20.6837L20.9337 37.2981L33.3337 29.6814C33.5739 29.5313 33.7719 29.3224 33.9089 29.0745C34.046 28.8267 34.1176 28.548 34.117 28.2647V13.7147C34.117 13.7147 34.1504 13.5981 34.1504 13.5314ZM20.0004 7.94806L22.967 9.78139L13.6504 15.5481L10.667 13.7147L20.0004 7.94806ZM18.3337 32.9481L9.16702 27.3481V16.6981L18.3337 22.3647V32.9481ZM20.0004 19.4314L16.817 17.5147L26.1337 11.7314L29.3337 13.7147L20.0004 19.4314ZM30.8337 27.2981L21.667 32.9981V22.3647L30.8337 16.6981V27.2981Z"/>
</svg>
