<svg width="24" height="24" viewBox="0 0 24 24" xmlns="http://www.w3.org/2000/svg">
<path d="M23.6889 8.74836C23.2742 8.35921 22.6042 8.35921 22.1894 8.74836L9.39581 20.812C7.73679 22.3686 5.05683 22.3686 3.3659 20.812C1.70688 19.2554 1.70688 16.7109 3.3659 15.1544L16.5424 2.73152C17.5633 1.77362 19.2542 1.77362 20.3071 2.73152C21.3599 3.71936 21.3599 5.27596 20.3071 6.2638L9.39581 16.5313C8.98106 16.9205 8.31107 16.9205 7.89631 16.5313C7.48155 16.1422 7.48155 15.5136 7.89631 15.1244L13.1605 10.1852C13.5753 9.79607 13.5753 9.16745 13.1605 8.7783C12.7458 8.38915 12.0758 8.38915 11.661 8.7783L6.39681 13.6876C5.15254 14.855 5.15254 16.7409 6.39681 17.9083C7.64108 19.0758 9.65105 19.0758 10.8953 17.9083L21.8066 7.67072C23.6889 5.90458 23.6889 3.0608 21.8066 1.3246C19.9242 -0.441534 16.8933 -0.441534 15.0429 1.3246L1.8664 13.7774C-0.622134 16.1123 -0.622134 19.9139 1.8664 22.2488C4.35494 24.5837 8.40678 24.5837 10.8953 22.2488L23.6889 10.1852C24.1037 9.76614 24.1037 9.13751 23.6889 8.74836Z"/>
</svg>
