<svg width="16" height="16" viewBox="0 0 16 16" xmlns="http://www.w3.org/2000/svg">
<path d="M12.6673 2.66671H11.334V2.00004C11.334 1.82323 11.2637 1.65366 11.1387 1.52864C11.0137 1.40361 10.8441 1.33337 10.6673 1.33337C10.4905 1.33337 10.3209 1.40361 10.1959 1.52864C10.0709 1.65366 10.0007 1.82323 10.0007 2.00004V2.66671H6.00065V2.00004C6.00065 1.82323 5.93041 1.65366 5.80539 1.52864C5.68036 1.40361 5.5108 1.33337 5.33398 1.33337C5.15717 1.33337 4.9876 1.40361 4.86258 1.52864C4.73756 1.65366 4.66732 1.82323 4.66732 2.00004V2.66671H3.33398C2.80355 2.66671 2.29484 2.87742 1.91977 3.25249C1.5447 3.62757 1.33398 4.13627 1.33398 4.66671V12.6667C1.33398 13.1971 1.5447 13.7058 1.91977 14.0809C2.29484 14.456 2.80355 14.6667 3.33398 14.6667H12.6673C13.1978 14.6667 13.7065 14.456 14.0815 14.0809C14.4566 13.7058 14.6673 13.1971 14.6673 12.6667V4.66671C14.6673 4.13627 14.4566 3.62757 14.0815 3.25249C13.7065 2.87742 13.1978 2.66671 12.6673 2.66671ZM13.334 12.6667C13.334 12.8435 13.2637 13.0131 13.1387 13.1381C13.0137 13.2631 12.8441 13.3334 12.6673 13.3334H3.33398C3.15717 13.3334 2.9876 13.2631 2.86258 13.1381C2.73756 13.0131 2.66732 12.8435 2.66732 12.6667V8.00004H13.334V12.6667ZM13.334 6.66671H2.66732V4.66671C2.66732 4.4899 2.73756 4.32033 2.86258 4.1953C2.9876 4.07028 3.15717 4.00004 3.33398 4.00004H4.66732V4.66671C4.66732 4.84352 4.73756 5.01309 4.86258 5.13811C4.9876 5.26314 5.15717 5.33337 5.33398 5.33337C5.5108 5.33337 5.68036 5.26314 5.80539 5.13811C5.93041 5.01309 6.00065 4.84352 6.00065 4.66671V4.00004H10.0007V4.66671C10.0007 4.84352 10.0709 5.01309 10.1959 5.13811C10.3209 5.26314 10.4905 5.33337 10.6673 5.33337C10.8441 5.33337 11.0137 5.26314 11.1387 5.13811C11.2637 5.01309 11.334 4.84352 11.334 4.66671V4.00004H12.6673C12.8441 4.00004 13.0137 4.07028 13.1387 4.1953C13.2637 4.32033 13.334 4.4899 13.334 4.66671V6.66671Z"/>
</svg>
