<svg width="24" height="24" viewBox="0 0 24 24" xmlns="http://www.w3.org/2000/svg">
<path d="M13.4099 12.0001L17.7099 7.71006C17.8982 7.52176 18.004 7.26637 18.004 7.00006C18.004 6.73376 17.8982 6.47837 17.7099 6.29006C17.5216 6.10176 17.2662 5.99597 16.9999 5.99597C16.7336 5.99597 16.4782 6.10176 16.2899 6.29006L11.9999 10.5901L7.70994 6.29006C7.52164 6.10176 7.26624 5.99597 6.99994 5.99597C6.73364 5.99597 6.47824 6.10176 6.28994 6.29006C6.10164 6.47837 5.99585 6.73376 5.99585 7.00006C5.99585 7.26637 6.10164 7.52176 6.28994 7.71006L10.5899 12.0001L6.28994 16.2901C6.19621 16.383 6.12182 16.4936 6.07105 16.6155C6.02028 16.7373 5.99414 16.8681 5.99414 17.0001C5.99414 17.1321 6.02028 17.2628 6.07105 17.3846C6.12182 17.5065 6.19621 17.6171 6.28994 17.7101C6.3829 17.8038 6.4935 17.8782 6.61536 17.929C6.73722 17.9797 6.86793 18.0059 6.99994 18.0059C7.13195 18.0059 7.26266 17.9797 7.38452 17.929C7.50638 17.8782 7.61698 17.8038 7.70994 17.7101L11.9999 13.4101L16.2899 17.7101C16.3829 17.8038 16.4935 17.8782 16.6154 17.929C16.7372 17.9797 16.8679 18.0059 16.9999 18.0059C17.132 18.0059 17.2627 17.9797 17.3845 17.929C17.5064 17.8782 17.617 17.8038 17.7099 17.7101C17.8037 17.6171 17.8781 17.5065 17.9288 17.3846C17.9796 17.2628 18.0057 17.1321 18.0057 17.0001C18.0057 16.8681 17.9796 16.7373 17.9288 16.6155C17.8781 16.4936 17.8037 16.383 17.7099 16.2901L13.4099 12.0001Z"/>
</svg>
