<svg width="40" height="41" viewBox="0 0 40 41" xmlns="http://www.w3.org/2000/svg">
<path d="M34.9997 27.6647H11.6663C11.2243 27.6647 10.8004 27.4891 10.4878 27.1765C10.1753 26.864 9.99967 26.4401 9.99967 25.998C9.99967 25.556 10.1753 25.1321 10.4878 24.8195C10.8004 24.507 11.2243 24.3314 11.6663 24.3314H29.0663C30.1808 24.3314 31.2633 23.9592 32.142 23.2737C33.0206 22.5883 33.6452 21.629 33.9163 20.548L36.6663 9.73136C36.7288 9.48537 36.7342 9.22838 36.6822 8.97998C36.6302 8.73158 36.5222 8.49833 36.3663 8.29803C36.2043 8.09258 35.9961 7.92819 35.7586 7.81816C35.5212 7.70813 35.2612 7.65556 34.9997 7.66469H11.2663C10.9225 6.69211 10.2862 5.84969 9.44478 5.25292C8.60334 4.65616 7.59792 4.33426 6.56634 4.33136H4.99967C4.55765 4.33136 4.13372 4.50695 3.82116 4.81952C3.5086 5.13208 3.33301 5.556 3.33301 5.99803C3.33301 6.44005 3.5086 6.86398 3.82116 7.17654C4.13372 7.4891 4.55765 7.66469 4.99967 7.66469H6.56634C6.94707 7.6536 7.3201 7.77325 7.62335 8.00372C7.9266 8.23418 8.14176 8.56157 8.23301 8.93136L8.33301 9.73136L11.2163 20.998C9.89026 21.0577 8.64219 21.6417 7.74671 22.6216C6.85122 23.6015 6.38167 24.8969 6.44134 26.223C6.50101 27.5491 7.08503 28.7972 8.06491 29.6927C9.04478 30.5881 10.3403 31.0577 11.6663 30.998H11.9663C11.6922 31.7532 11.6042 32.5634 11.7096 33.3599C11.815 34.1564 12.1108 34.9157 12.5719 35.5736C13.033 36.2315 13.6459 36.7687 14.3586 37.1395C15.0713 37.5103 15.8629 37.7039 16.6663 37.7039C17.4698 37.7039 18.2614 37.5103 18.9741 37.1395C19.6868 36.7687 20.2997 36.2315 20.7608 35.5736C21.2219 34.9157 21.5177 34.1564 21.6231 33.3599C21.7285 32.5634 21.6404 31.7532 21.3663 30.998H25.2997C25.0256 31.7532 24.9375 32.5634 25.0429 33.3599C25.1483 34.1564 25.4441 34.9157 25.9052 35.5736C26.3663 36.2315 26.9792 36.7687 27.6919 37.1395C28.4047 37.5103 29.1963 37.7039 29.9997 37.7039C30.8031 37.7039 31.5947 37.5103 32.3074 37.1395C33.0202 36.7687 33.633 36.2315 34.0941 35.5736C34.5553 34.9157 34.8511 34.1564 34.9565 33.3599C35.0619 32.5634 34.9738 31.7532 34.6997 30.998H34.9997C35.4417 30.998 35.8656 30.8224 36.1782 30.5099C36.4907 30.1973 36.6663 29.7734 36.6663 29.3314C36.6663 28.8893 36.4907 28.4654 36.1782 28.1528C35.8656 27.8403 35.4417 27.6647 34.9997 27.6647ZM32.8663 10.998L30.683 19.7314C30.5918 20.1012 30.3766 20.4285 30.0734 20.659C29.7701 20.8895 29.3971 21.0091 29.0163 20.998H14.633L12.133 10.998H32.8663ZM16.6663 34.3314C16.3367 34.3314 16.0145 34.2336 15.7404 34.0505C15.4663 33.8673 15.2527 33.607 15.1265 33.3025C15.0004 32.998 14.9674 32.6628 15.0317 32.3395C15.096 32.0162 15.2547 31.7193 15.4878 31.4862C15.7209 31.2531 16.0179 31.0944 16.3412 31.0301C16.6645 30.9657 16.9996 30.9987 17.3041 31.1249C17.6087 31.251 17.869 31.4647 18.0521 31.7387C18.2353 32.0128 18.333 32.3351 18.333 32.6647C18.333 33.1067 18.1574 33.5306 17.8449 33.8432C17.5323 34.1558 17.1084 34.3314 16.6663 34.3314ZM29.9997 34.3314C29.67 34.3314 29.3478 34.2336 29.0737 34.0505C28.7996 33.8673 28.586 33.607 28.4599 33.3025C28.3337 32.998 28.3007 32.6628 28.365 32.3395C28.4293 32.0162 28.5881 31.7193 28.8212 31.4862C29.0543 31.2531 29.3512 31.0944 29.6745 31.0301C29.9978 30.9657 30.3329 30.9987 30.6375 31.1249C30.942 31.251 31.2023 31.4647 31.3855 31.7387C31.5686 32.0128 31.6663 32.3351 31.6663 32.6647C31.6663 33.1067 31.4907 33.5306 31.1782 33.8432C30.8656 34.1558 30.4417 34.3314 29.9997 34.3314Z"/>
</svg>
