<svg width="24" height="24" viewBox="0 0 24 24" xmlns="http://www.w3.org/2000/svg">
<path d="M11.9995 1.99998C10.4674 1.99721 8.95516 2.34652 7.57948 3.02095C6.20379 3.69538 5.00147 4.6769 4.06531 5.88974C3.12916 7.10258 2.4842 8.51432 2.18023 10.016C1.87626 11.5176 1.92141 13.0691 2.31218 14.5505C2.70295 16.0319 3.4289 17.4038 4.43399 18.5601C5.43908 19.7165 6.69644 20.6264 8.10902 21.2197C9.52159 21.813 11.0516 22.0738 12.581 21.982C14.1103 21.8901 15.5981 21.4481 16.9295 20.69H16.9995H17.0495C18.9748 19.594 20.4816 17.8897 21.3335 15.8447C22.1854 13.7997 22.334 11.5297 21.7562 9.39101C21.1783 7.25235 19.9066 5.36611 18.1407 4.02839C16.3749 2.69067 14.2148 1.9772 11.9995 1.99998ZM12.9995 4.06998C14.7596 4.29317 16.3955 5.09507 17.65 6.34957C18.9044 7.60406 19.7063 9.23996 19.9295 11H12.9995V4.06998ZM11.9995 20C9.97404 19.9862 8.0292 19.2045 6.55748 17.8128C5.08576 16.4211 4.19674 14.5229 4.06984 12.5014C3.94293 10.4798 4.58759 8.48537 5.87372 6.92054C7.15984 5.35571 8.99167 4.33699 10.9995 4.06998V12C11.0035 12.1197 11.0271 12.238 11.0695 12.35V12.43V12.5L15.0695 19.37C14.0993 19.7853 13.0549 19.9996 11.9995 20ZM16.8295 18.36L13.7295 13H19.9295C19.7949 14.0546 19.4514 15.0717 18.9191 15.9921C18.3869 16.9124 17.6765 17.7174 16.8295 18.36Z"/>
</svg>
