<svg width="22" height="22" viewBox="0 0 22 22" xmlns="http://www.w3.org/2000/svg">
    <path fill-rule="evenodd" clip-rule="evenodd" d="M16.2929 17.7071C16.6834 18.0976 17.3166 18.0976 17.7071 17.7071C18.0976 17.3166 18.0976 16.6834 17.7071 16.2929L12.4142 11L17.7071 5.70712C18.0976 5.31659 18.0976 4.68343 17.7071 4.2929C17.3166 3.90238 16.6834 3.90238 16.2929 4.2929L11 9.5858L5.70711 4.29289C5.31658 3.90237 4.68342 3.90237 4.29289 4.29289C3.90237 4.68342 3.90237 5.31658 4.29289 5.70711L9.5858 11L4.29289 16.2929C3.90237 16.6834 3.90237 17.3166 4.29289 17.7071C4.68342 18.0977 5.31658 18.0977 5.70711 17.7071L11 12.4142L16.2929 17.7071Z"/>
</svg>