<svg width="20" height="20" viewBox="0 0 20 20" fill="none" xmlns="http://www.w3.org/2000/svg">
<path d="M18.6 14.5C16.2 12.9 13.1 12 10 12C6.9 12 3.8 12.9 1.4 14.5C0.5 15.1 0 15.9 0 16.9V20H20V16.9C20 15.9 19.5 15.1 18.6 14.5ZM18 18H2V16.9C2 16.7 2.2 16.4 2.5 16.2C4.6 14.8 7.2 14 10 14C12.8 14 15.4 14.8 17.5 16.1C17.8 16.3 18 16.6 18 16.8V18Z" fill="#31ACB8"/>
<path d="M10 10C12.8 10 15 7.8 15 5C15 2.2 12.8 0 10 0C7.2 0 5 2.2 5 5C5 7.8 7.2 10 10 10ZM10 2C11.7 2 13 3.3 13 5C13 6.7 11.7 8 10 8C8.3 8 7 6.7 7 5C7 3.3 8.3 2 10 2Z" fill="#31ACB8"/>
</svg>
