<svg width="12" height="12" viewBox="0 0 12 12" fill="none" xmlns="http://www.w3.org/2000/svg">
<path fill-rule="evenodd" clip-rule="evenodd" d="M3.1824 8.3196L2.5824 7.2804L0.504 8.4804L1.104 9.5196L3.1824 8.3196ZM11.496 3.5196L10.896 2.4804L8.8182 3.6804L9.4182 4.7196L11.496 3.5196ZM4.7202 2.5818L3.5196 0.504L2.4804 1.104L3.6804 3.1818L4.7202 2.5818ZM9.5202 10.896L8.3202 8.8176L7.2804 9.4176L8.4804 11.496L9.5202 10.896ZM3.1824 3.6804L1.104 2.4804L0.504 3.5196L2.5824 4.7196L3.1824 3.6804ZM11.496 8.4804L9.4182 7.2804L8.8182 8.3196L10.896 9.5196L11.496 8.4804ZM9.5202 1.104L8.4804 0.504L7.2804 2.5818L8.3202 3.1818L9.5202 1.104ZM4.7202 9.4176L3.6804 8.8176L2.4804 10.896L3.5196 11.496L4.7202 9.4176ZM0 6.6H2.4V5.4H0V6.6ZM9.6 6.6H12V5.4H9.6V6.6ZM5.4 6.6H6.6V0H5.4V6.6ZM5.4 12H6.6V9.6H5.4V12Z" fill="#BE2882"/>
</svg>
