<svg width="14" height="14" viewBox="0 0 14 14" fill="none" xmlns="http://www.w3.org/2000/svg">
<path d="M13.6665 5.4467C13.6244 5.32476 13.5478 5.21765 13.446 5.13837C13.3443 5.05909 13.2217 5.01103 13.0932 5.00004L9.29982 4.4467L7.59982 1.00004C7.54523 0.887322 7.46 0.792264 7.35388 0.725751C7.24776 0.659239 7.12506 0.623962 6.99982 0.623962C6.87458 0.623962 6.75188 0.659239 6.64576 0.725751C6.53965 0.792264 6.45441 0.887322 6.39982 1.00004L4.69982 4.44004L0.906489 5.00004C0.783104 5.01757 0.667105 5.06934 0.571656 5.14947C0.476206 5.2296 0.405129 5.33489 0.366489 5.45337C0.331119 5.56915 0.327945 5.69238 0.357307 5.80983C0.38667 5.92728 0.447461 6.03452 0.533156 6.12004L3.28649 8.7867L2.61982 12.5734C2.59602 12.6984 2.60848 12.8275 2.65574 12.9457C2.70299 13.0638 2.78306 13.1659 2.88649 13.24C2.9873 13.3121 3.1062 13.3547 3.22985 13.3629C3.3535 13.3711 3.477 13.3448 3.58649 13.2867L6.99982 11.5067L10.3998 13.2934C10.4934 13.3462 10.5991 13.3737 10.7065 13.3734C10.8477 13.3739 10.9854 13.3295 11.0998 13.2467C11.2033 13.1726 11.2833 13.0705 11.3306 12.9523C11.3778 12.8342 11.3903 12.705 11.3665 12.58L10.6998 8.79337L13.4532 6.1267C13.5494 6.04516 13.6206 5.93797 13.6583 5.8176C13.6961 5.69723 13.6989 5.56862 13.6665 5.4467ZM9.56649 8.11337C9.4883 8.18899 9.42981 8.2826 9.39611 8.38602C9.36241 8.48944 9.35453 8.59954 9.37315 8.7067L9.85316 11.5L7.34649 10.1667C7.25003 10.1153 7.14243 10.0885 7.03315 10.0885C6.92388 10.0885 6.81628 10.1153 6.71982 10.1667L4.21316 11.5L4.69316 8.7067C4.71178 8.59954 4.7039 8.48944 4.6702 8.38602C4.6365 8.2826 4.57801 8.18899 4.49982 8.11337L2.49982 6.11337L5.30649 5.7067C5.41449 5.69168 5.51715 5.6504 5.60549 5.58647C5.69382 5.52254 5.76513 5.43793 5.81316 5.34004L6.99982 2.80004L8.25315 5.3467C8.30118 5.44459 8.37249 5.52921 8.46082 5.59314C8.54916 5.65706 8.65182 5.69835 8.75982 5.71337L11.5665 6.12004L9.56649 8.11337Z" fill="#31ACB8"/>
</svg>
