<svg width="20" height="20" viewBox="0 0 20 20" xmlns="http://www.w3.org/2000/svg">
<path d="M18.3332 8.05821C18.2806 7.90578 18.1849 7.7719 18.0577 7.6728C17.9305 7.57369 17.7772 7.51362 17.6166 7.49988L12.8749 6.80821L10.7499 2.49988C10.6817 2.35898 10.5751 2.24016 10.4425 2.15702C10.3098 2.07388 10.1564 2.02979 9.9999 2.02979C9.84335 2.02979 9.68997 2.07388 9.55732 2.15702C9.42468 2.24016 9.31814 2.35898 9.2499 2.49988L7.1249 6.79988L2.38323 7.49988C2.229 7.5218 2.084 7.58651 1.96469 7.68668C1.84538 7.78684 1.75653 7.91844 1.70823 8.06654C1.66402 8.21127 1.66005 8.36531 1.69676 8.51212C1.73346 8.65893 1.80945 8.79298 1.91657 8.89988L5.35823 12.2332L4.5249 16.9665C4.49515 17.1228 4.51073 17.2843 4.56979 17.4319C4.62886 17.5796 4.72894 17.7073 4.85823 17.7999C4.98425 17.89 5.13288 17.9431 5.28744 17.9535C5.442 17.9638 5.59637 17.9308 5.73323 17.8582L9.9999 15.6332L14.2499 17.8665C14.3669 17.9325 14.4989 17.967 14.6332 17.9665C14.8098 17.9672 14.9819 17.9117 15.1249 17.8082C15.2542 17.7156 15.3543 17.5879 15.4133 17.4403C15.4724 17.2926 15.488 17.1311 15.4582 16.9749L14.6249 12.2415L18.0666 8.90821C18.1869 8.80628 18.2758 8.6723 18.323 8.52183C18.3702 8.37137 18.3738 8.21061 18.3332 8.05821ZM13.2082 11.3915C13.1105 11.4861 13.0374 11.6031 12.9953 11.7324C12.9531 11.8616 12.9433 11.9993 12.9666 12.1332L13.5666 15.6249L10.4332 13.9582C10.3127 13.894 10.1782 13.8604 10.0416 13.8604C9.90497 13.8604 9.77047 13.894 9.6499 13.9582L6.51657 15.6249L7.11657 12.1332C7.13985 11.9993 7.12999 11.8616 7.08787 11.7324C7.04575 11.6031 6.97263 11.4861 6.8749 11.3915L4.3749 8.89154L7.88323 8.38321C8.01823 8.36443 8.14656 8.31283 8.25698 8.23292C8.3674 8.15301 8.45653 8.04724 8.51657 7.92488L9.9999 4.74988L11.5666 7.93321C11.6266 8.05558 11.7157 8.16135 11.8261 8.24125C11.9366 8.32116 12.0649 8.37277 12.1999 8.39154L15.7082 8.89988L13.2082 11.3915Z"/>
</svg>
