<svg width="24" height="24" viewBox="0 0 24 24" xmlns="http://www.w3.org/2000/svg">
<path d="M14.5 22C15.4946 22 16.4484 21.6049 17.1517 20.9017C17.8549 20.1984 18.25 19.2446 18.25 18.25V14.5H15.75V18.25C15.75 18.5815 15.6183 18.8995 15.3839 19.1339C15.1495 19.3683 14.8315 19.5 14.5 19.5H5.75C5.41848 19.5 5.10054 19.3683 4.86612 19.1339C4.6317 18.8995 4.5 18.5815 4.5 18.25V9.5C4.5 9.16848 4.6317 8.85054 4.86612 8.61612C5.10054 8.3817 5.41848 8.25 5.75 8.25H9.5V5.75H5.75C4.75544 5.75 3.80161 6.14509 3.09835 6.84835C2.39509 7.55161 2 8.50544 2 9.5V18.25C2 19.2446 2.39509 20.1984 3.09835 20.9017C3.80161 21.6049 4.75544 22 5.75 22H14.5Z"/>
<path d="M18.25 2H15.75V5.75H12V8.25H15.75V12H18.25V8.25H22V5.75H18.25V2Z"/>
</svg>
