<svg width="40" height="40" viewBox="0 0 40 40" xmlns="http://www.w3.org/2000/svg">
<path d="M5.08 36.24C3.72 36.24 2.44 35.72 1.48 34.76C0.52 33.8 0 32.52 0 31.16V8.84001C0 7.48001 0.52 6.20001 1.48 5.24001C2.44 4.28001 3.72 3.76001 5.08 3.76001H11.72C12.8 3.76001 13.8 4.08001 14.68 4.68001C15.56 5.28001 16.2 6.12001 16.56 7.12001L17.28 9.32001H29.36C30.72 9.32001 32 9.84001 32.96 10.8C33.92 11.76 34.44 13.04 34.44 14.4V16.8H38.68C38.88 16.8 39.08 16.84 39.28 16.92C39.48 17 39.64 17.12 39.76 17.28C39.92 17.44 40 17.64 40.04 17.84C40.08 18.04 40.08 18.24 40.04 18.44L36.92 32.28C36.68 33.4 36.04 34.4 35.16 35.12C34.28 35.84 33.16 36.24 32 36.24H5.08ZM10.76 32.28C10.72 32.48 10.68 32.68 10.6 32.84L10.28 33.56H31.92C32.44 33.56 32.96 33.4 33.4 33.04C33.84 32.72 34.12 32.24 34.24 31.68L37.04 19.48H13.6L10.76 32.28ZM5.08 6.44001C4.44 6.44001 3.84 6.68001 3.4 7.12001C2.96 7.56001 2.72 8.16001 2.72 8.80001V31.16C2.72 31.8 2.96 32.4 3.4 32.84C3.84 33.28 4.44 33.52 5.08 33.52H5.8C6.32 33.52 6.84 33.36 7.28 33C7.72 32.68 8 32.2 8.12 31.64L11.16 17.76C11.24 17.44 11.4 17.2 11.64 17C11.88 16.8 12.16 16.72 12.48 16.72H31.68V14.4C31.68 13.76 31.44 13.16 31 12.72C30.56 12.28 29.96 12.04 29.32 12.04H16.24C16 12.04 15.72 11.92 15.52 11.76C15.32 11.6 15.16 11.36 15.04 11.12L14.04 8.08001C13.88 7.60001 13.56 7.16001 13.12 6.88001C12.72 6.60001 12.28 6.48001 11.8 6.48001C11.76 6.48001 11.72 6.48001 11.68 6.48001L5.08 6.44001Z"/>
</svg>
