<svg width="6" height="10" viewBox="0 0 6 10" xmlns="http://www.w3.org/2000/svg">
<path d="M2.17023 8.44C2.20715 8.38761 2.24722 8.33752 2.29023 8.29C2.38319 8.19627 2.49379 8.12188 2.61565 8.07111C2.73751 8.02034 2.86821 7.9942 3.00023 7.9942C3.13224 7.9942 3.26294 8.02034 3.3848 8.07111C3.50666 8.12188 3.61726 8.19627 3.71023 8.29C3.80291 8.38344 3.87623 8.49426 3.926 8.61609C3.97576 8.73793 4.00099 8.86839 4.00023 9C4.00501 9.12936 3.98463 9.25841 3.94022 9.38C3.89531 9.5041 3.82366 9.6168 3.73034 9.71012C3.63702 9.80344 3.52432 9.87509 3.40022 9.92C3.28052 9.97291 3.1511 10.0002 3.02023 10.0002C2.88935 10.0002 2.75993 9.97291 2.64023 9.92C2.51613 9.87509 2.40343 9.80344 2.31011 9.71012C2.21679 9.6168 2.14514 9.5041 2.10023 9.38C2.04424 9.26132 2.01685 9.13118 2.02023 9C2.01532 8.93342 2.01532 8.86658 2.02023 8.8C2.03117 8.73735 2.05139 8.67669 2.08023 8.62C2.10211 8.55628 2.13238 8.49575 2.17023 8.44Z"/>
<path d="M1.49913 0.401443C1.95556 0.138121 2.47329 -0.000337225 3.00023 0C3.70377 0.00545898 4.38301 0.258014 4.91922 0.713516C5.45543 1.16902 5.81448 1.79849 5.93362 2.49189C6.05276 3.18529 5.92441 3.89851 5.571 4.50687C5.21758 5.11523 4.6616 5.58002 4.00023 5.82V6C4.00023 6.26522 3.89487 6.51957 3.70733 6.70711C3.5198 6.89464 3.26544 7 3.00023 7C2.73501 7 2.48065 6.89464 2.29312 6.70711C2.10558 6.51957 2.00023 6.26522 2.00023 6V5C2.00023 4.73478 2.10558 4.48043 2.29312 4.29289C2.48065 4.10536 2.73501 4 3.00023 4C3.26544 4 3.5198 3.89464 3.70733 3.70711C3.89487 3.51957 4.00023 3.26522 4.00023 3C4.00023 2.73478 3.89487 2.48043 3.70733 2.29289C3.5198 2.10536 3.26544 2 3.00023 2C2.82402 1.9993 2.65075 2.04518 2.49797 2.13298C2.34519 2.22078 2.21833 2.3474 2.13023 2.5C2.06771 2.61951 1.98167 2.72513 1.87727 2.81052C1.77288 2.89591 1.65229 2.9593 1.52276 2.99688C1.39323 3.03445 1.25744 3.04544 1.12356 3.02918C0.989673 3.01292 0.860461 2.96974 0.743696 2.90225C0.626931 2.83475 0.525025 2.74433 0.44411 2.63644C0.363194 2.52854 0.30494 2.40538 0.272853 2.27439C0.240767 2.14339 0.23551 2.00726 0.257399 1.87418C0.279288 1.7411 0.32787 1.61382 0.400224 1.5C0.663692 1.04366 1.04271 0.664765 1.49913 0.401443Z"/>
</svg>
