<svg width="40" height="40" viewBox="0 0 40 40" xmlns="http://www.w3.org/2000/svg">
<path d="M32.12 16.52L23.68 11.44C23.76 11.16 23.76 10.88 23.76 10.6C23.76 8.92 22.68 7.52 21.16 7V4.8H28.6V0H26.24V2.44H13.76V0H11.4V4.8H18.84V7C17.32 7.48 16.24 8.92 16.24 10.6C16.24 10.88 16.28 11.16 16.32 11.44L7.88 16.52H0V40H40V16.52H32.12ZM19.72 9.2C20.72 9 21.6 9.88 21.4 10.88C21.28 11.44 20.84 11.92 20.28 12C19.28 12.2 18.4 11.32 18.6 10.32C18.68 9.76 19.16 9.28 19.72 9.2ZM17.52 13.44C18.2 14 19.04 14.36 20 14.36C20.96 14.36 21.8 14 22.48 13.44L27.6 16.52H12.44L17.52 13.44ZM37.64 37.64H2.36V18.88H37.68V37.64H37.64Z"/>
<path d="M5.91977 21.96C6.55977 21.96 7.07977 22.48 7.07977 23.12V33.36C7.07977 34 6.55977 34.52 5.91977 34.52C5.27977 34.52 4.75977 34 4.75977 33.36V23.16C4.75977 22.52 5.27977 21.96 5.91977 21.96Z"/>
<path d="M10.6405 21.96C11.2805 21.96 11.8005 22.48 11.8005 23.12V33.36C11.8005 34 11.2805 34.52 10.6405 34.52C10.0005 34.52 9.48054 34 9.48054 33.36V23.12C9.44054 22.52 10.0005 21.96 10.6405 21.96Z"/>
<path d="M15.3202 21.96C15.9602 21.96 16.4802 22.48 16.4802 23.12V33.36C16.4802 34 15.9602 34.52 15.3202 34.52C14.6802 34.52 14.1602 34 14.1602 33.36V23.16C14.1602 22.52 14.6802 21.96 15.3202 21.96Z"/>
<path d="M20.0399 21.96C20.6799 21.96 21.1999 22.48 21.1999 23.12V33.36C21.1999 34 20.6799 34.52 20.0399 34.52C19.3999 34.52 18.8799 34 18.8799 33.36V23.16C18.8799 22.52 19.3999 21.96 20.0399 21.96Z"/>
<path d="M24.7205 21.96C25.3605 21.96 25.8805 22.48 25.8805 23.12V33.36C25.8805 34 25.3605 34.52 24.7205 34.52C24.0805 34.52 23.5605 34 23.5605 33.36V23.16C23.5605 22.52 24.0805 21.96 24.7205 21.96Z"/>
<path d="M29.4403 21.96C30.0803 21.96 30.6003 22.48 30.6003 23.12V33.36C30.6003 34 30.0803 34.52 29.4403 34.52C28.8003 34.52 28.2803 34 28.2803 33.36V23.16C28.2803 22.52 28.8003 21.96 29.4403 21.96Z"/>
<path d="M34.0799 21.96C34.7199 21.96 35.2399 22.48 35.2399 23.12V33.36C35.2399 34 34.7199 34.52 34.0799 34.52C33.4399 34.52 32.9199 34 32.9199 33.36V23.16C32.9199 22.52 33.4399 21.96 34.0799 21.96Z"/>
</svg>
