<svg width="24" height="24" viewBox="0 0 24 24" fill="none" xmlns="http://www.w3.org/2000/svg">
<circle cx="12" cy="12" r="9.5" stroke="#31ACB8"/>
<path d="M12.7314 14.0674H11.3027L11.1455 7.04688H12.8955L12.7314 14.0674ZM11.0977 16.2139C11.0977 15.9541 11.182 15.7399 11.3506 15.5713C11.5192 15.3981 11.7493 15.3115 12.041 15.3115C12.3327 15.3115 12.5628 15.3981 12.7314 15.5713C12.9001 15.7399 12.9844 15.9541 12.9844 16.2139C12.9844 16.4645 12.9023 16.6742 12.7383 16.8428C12.5742 17.0114 12.3418 17.0957 12.041 17.0957C11.7402 17.0957 11.5078 17.0114 11.3438 16.8428C11.1797 16.6742 11.0977 16.4645 11.0977 16.2139Z" fill="#31ACB8"/>
</svg>
