<svg width="40" height="40" viewBox="0 0 40 40" fill="none" xmlns="http://www.w3.org/2000/svg">
<path d="M19.9998 40C19.9198 40 19.7998 40 19.7198 39.96C12.3998 38.08 3.75977 27.28 3.75977 20V4.6C3.75977 3.96 4.27977 3.44 4.91977 3.44C7.27977 3.44 10.7598 2.48 15.1998 1.28C16.7598 0.84 18.1598 0.48 19.7198 0.08C19.7998 0 19.8798 0 19.9998 0C20.1198 0 20.1998 0 20.2798 0.04C21.7598 0.44 23.1598 0.8 24.4398 1.2C28.9998 2.44 32.5598 3.44 35.0398 3.44C35.6798 3.44 36.1998 3.96 36.1998 4.6V20C36.1998 27.56 29.0798 38.12 20.1998 39.96C20.1598 40 20.0798 40 19.9998 40ZM19.9598 2.36C18.4798 2.76 17.0798 3.12 15.7998 3.48C11.8398 4.56 8.67977 5.44 6.15977 5.68H6.07977V20C6.07977 26.24 13.6398 35.8 19.9998 37.64H20.0398H20.0798C27.5598 35.88 33.9598 26.44 33.9598 20V5.68H33.8798C31.2398 5.44 27.8398 4.48 23.9198 3.4C22.7198 3.08 21.4398 2.72 20.0798 2.36H19.9598Z" fill="#31ACB8"/>
<path d="M18.7598 26.2C18.4398 26.2 18.1598 26.08 17.9598 25.88L12.9198 20.8C12.4798 20.36 12.4798 19.6 12.9198 19.16C13.1198 18.96 13.4398 18.84 13.7198 18.84C14.0398 18.84 14.3198 18.96 14.5198 19.16L18.6798 23.32L26.6798 14.2C26.8798 13.96 27.1998 13.8 27.5598 13.8C27.8398 13.8 28.1198 13.92 28.3198 14.08C28.7998 14.48 28.8398 15.24 28.4398 15.72L19.5998 25.8C19.3998 26.04 19.1198 26.16 18.7598 26.2Z" fill="#31ACB8"/>
</svg>
