<svg width="40" height="40" viewBox="0 0 40 40" xmlns="http://www.w3.org/2000/svg">
<path d="M12.5195 38C9.67832 38 7.05295 36.9211 5.07492 34.9071C0.975025 30.8072 0.975025 24.1179 5.07492 19.982L17.5544 7.5025C17.7702 7.28671 18.0939 7.14286 18.4176 7.14286C18.7413 7.14286 19.029 7.28671 19.2807 7.5025L20.6114 8.83317L27.0849 2.35964C27.3007 2.14386 27.6244 2 27.948 2C28.2717 2 28.5594 2.14386 28.8112 2.35964L37.5864 11.2068C38.0539 11.6743 38.0539 12.4655 37.5864 12.9331L31.1129 19.4066L32.4436 20.7373C32.9111 21.2048 32.9111 21.996 32.4436 22.4635L20 34.9071C17.986 36.8851 15.3606 38 12.5195 38ZM6.8012 21.7083C5.25474 23.2547 4.42757 25.2687 4.42757 27.4625C4.42757 29.6204 5.25474 31.6703 6.8012 33.2168C8.31169 34.7632 10.3616 35.5904 12.5195 35.5904C14.6773 35.5904 16.7273 34.7632 18.2737 33.2168L20.3596 31.1309L8.85115 19.6224L6.8012 21.7083ZM22.0499 29.4046L29.8541 21.6004L18.3816 10.0919L10.5774 17.9321L22.0499 29.4046ZM29.3866 17.6803L34.997 12.0699L27.9121 4.98502L22.3017 10.5954L29.3866 17.6803Z"/>
<path d="M26.4736 11.7822C26.1499 11.7822 25.8262 11.6743 25.6104 11.4226C25.1429 10.955 25.1429 10.1638 25.6104 9.69629L27.0849 8.22176C27.3007 8.00598 27.6244 7.86212 27.9481 7.86212C28.2718 7.86212 28.5954 8.00598 28.8112 8.22176C29.2787 8.68929 29.2787 9.4805 28.8112 9.94804L27.3367 11.4226C27.0849 11.6743 26.7972 11.7822 26.4736 11.7822Z"/>
<path d="M29.3868 14.7313C29.0632 14.7313 28.7395 14.6234 28.5237 14.3717C28.3079 14.1559 28.1641 13.8322 28.1641 13.5085C28.1641 13.1848 28.3079 12.8971 28.5237 12.6454L29.9982 11.1709C30.214 10.9551 30.5377 10.8112 30.8614 10.8112C31.185 10.8112 31.4728 10.9551 31.7245 11.1709C32.192 11.6384 32.192 12.4296 31.7245 12.8971L30.25 14.3717C30.0342 14.6234 29.7105 14.7313 29.3868 14.7313Z"/>
</svg>
