<svg width="40" height="40" viewBox="0 0 40 40" fill="none" xmlns="http://www.w3.org/2000/svg">
<g clip-path="url(#clip0)">
<path d="M36.0803 37.36C35.5603 37.36 35.0403 37.24 34.5603 37.04C34.1203 36.84 33.7203 36.6 33.4003 36.28C33.0403 35.96 32.7603 35.56 32.5603 35.16C32.4003 34.8 32.2803 34.44 32.2003 34.04C32.1203 33.64 32.1203 33.24 32.2003 32.84C32.2803 32.44 32.4003 32.04 32.6003 31.64C32.9603 30.92 33.5603 30.32 34.3203 29.92C34.4803 29.84 34.6403 29.76 34.8003 29.72L34.8803 29.68V13.84L30.6803 15.76V15.84C30.7203 18 30.6803 22.04 30.6803 25.32C30.6803 26.92 30.6803 28.4 30.6803 29.44C30.6803 29.48 30.6803 29.52 30.6803 29.52C30.6803 29.68 30.6803 29.88 30.6403 30C30.6003 30.2 30.5603 30.4 30.5203 30.6C30.2003 31.64 29.4403 32.64 28.2803 33.48C27.2403 34.24 25.9603 34.8 24.4003 35.28C23.2403 35.6 22.0403 35.84 20.7203 35.96C20.0403 36 19.4003 36.04 18.7203 36.04C18.0403 36.04 17.3603 36 16.7203 35.96C15.8003 35.88 14.9203 35.72 14.0403 35.56C13.3603 35.4 12.7203 35.2 12.1203 35C11.7603 34.88 11.3603 34.72 11.0003 34.56C10.7203 34.44 10.4803 34.32 10.2003 34.16C10.0003 34.04 9.76031 33.92 9.52031 33.76C8.40031 33 7.60031 32.16 7.12031 31.2C6.92031 30.72 6.76031 30.24 6.76031 29.76C6.76031 29.64 6.76031 29.56 6.76031 29.44C6.68031 26.92 6.72031 21.96 6.76031 18.32C6.76031 17.36 6.76031 15.8 6.76031 15.8L0.720312 13.04H0.680312C0.640312 13.04 0.640312 13 0.600312 13C0.440312 12.92 0.320312 12.8 0.240312 12.68C0.00031178 12.36 -0.0796882 11.92 0.0803118 11.52C0.120312 11.4 0.200312 11.28 0.240312 11.2C0.320312 11.08 0.480312 10.96 0.600312 10.88L0.720312 10.8L18.1603 2.76H18.2003C18.2803 2.72 18.2803 2.72 18.3603 2.72C18.4803 2.68 18.6003 2.68 18.7203 2.68H18.8403H18.8803C18.9603 2.68 18.9603 2.68 19.0403 2.72L19.2003 2.76L36.6003 10.8L36.6803 10.84C36.8403 10.92 36.9603 11.04 37.0403 11.16C37.1203 11.28 37.1603 11.36 37.2003 11.48V11.56C37.2403 11.68 37.2403 11.8 37.2403 11.88V29.72L37.3203 29.76C37.4803 29.8 37.6403 29.88 37.8003 29.96C38.5203 30.32 39.1203 30.92 39.5203 31.68C39.7203 32.04 39.8403 32.44 39.9203 32.88C40.0003 33.28 40.0003 33.68 39.9203 34.08C39.8803 34.48 39.7603 34.84 39.5603 35.2C39.3603 35.64 39.0803 36 38.7203 36.32C38.3603 36.64 38.0003 36.92 37.5603 37.08C37.1203 37.28 36.6003 37.36 36.0803 37.36ZM36.0403 32C35.8003 32 35.6003 32.08 35.4403 32.16C35.0803 32.36 34.8003 32.68 34.6803 33.08C34.6403 33.24 34.6403 33.44 34.6403 33.64C34.6803 33.8 34.6803 33.92 34.7603 34.04C34.8403 34.2 34.9203 34.36 35.0403 34.48C35.1603 34.6 35.3203 34.72 35.4803 34.76C35.6403 34.84 35.8403 34.88 36.0403 34.88H36.0803C36.2403 34.88 36.4403 34.84 36.6003 34.8C36.7603 34.72 36.9203 34.64 37.0403 34.52C37.1603 34.4 37.2803 34.28 37.3603 34.12C37.4403 34 37.4803 33.88 37.4803 33.72C37.6003 33.12 37.3203 32.52 36.7603 32.2C36.5603 32.08 36.3603 32.04 36.1603 32C36.1603 32 36.0803 32 36.0403 32ZM9.20031 17.12C9.20031 18.84 9.20031 22.08 9.20031 24.92C9.20031 26.72 9.20031 28.36 9.20031 29.44C9.20031 29.52 9.20031 29.56 9.20031 29.64C9.20031 29.72 9.24031 29.76 9.24031 29.84C9.32031 30.2 9.56031 30.56 9.92031 30.92C10.4003 31.4 11.0003 31.84 11.8403 32.2C12.1203 32.32 12.4003 32.44 12.7203 32.56C13.4003 32.84 14.2003 33.04 15.0003 33.2C15.9203 33.4 16.9203 33.48 17.9203 33.52C18.1603 33.52 18.4403 33.52 18.6803 33.52C19.5203 33.52 20.3603 33.48 21.2003 33.36C22.1603 33.24 23.0403 33.04 23.8803 32.8C24.2003 32.68 24.5203 32.6 24.8403 32.48C25.0803 32.4 25.3203 32.28 25.5203 32.16C26.3203 31.8 26.9203 31.36 27.4003 30.92C27.7203 30.56 27.9603 30.24 28.0803 29.92C28.1203 29.8 28.1603 29.68 28.1603 29.56C28.1603 29.52 28.1603 29.48 28.1603 29.44C28.1203 27.52 28.1203 23.36 28.1603 17.08V16.92L19.1603 21.08H19.1203C19.0403 21.12 19.0403 21.12 18.9603 21.16C18.8803 21.2 18.7603 21.2 18.6803 21.2C18.6003 21.2 18.4803 21.2 18.4003 21.16C18.3203 21.12 18.2803 21.12 18.2403 21.12L18.2003 21.08L9.20031 16.96V17.12ZM4.20031 11.92L18.6803 18.6L33.1603 11.92L18.6403 5.24L4.20031 11.92Z" fill="#31ACB8"/>
</g>
<defs>
<clipPath id="clip0">
<rect width="40" height="40" fill="white"/>
</clipPath>
</defs>
</svg>
