<svg width="40" height="40" viewBox="0 0 40 40" xmlns="http://www.w3.org/2000/svg">
<path d="M1.2 40C0.52 40 0 39.44 0 38.8V34.72C0 34.04 0.56 33.52 1.2 33.52H3.04V16.64H1.2C0.52 16.64 0 16.08 0 15.44V12.4C0 11.96 0.24 11.56 0.6 11.36L19.4 0.2C19.56 0.08 19.72 0 19.92 0C19.96 0 19.96 0 20 0C20.24 0 20.44 0.04 20.64 0.16L39.44 11.32C39.8 11.52 40.04 11.92 40.04 12.36V15.4C40.04 16.08 39.48 16.6 38.84 16.6H37V33.48H38.88H38.92C39.56 33.52 40.04 34.08 40.04 34.68V38.8C40.04 39.48 39.48 40 38.84 40H1.2ZM37.56 37.56V35.92H2.44V37.56H37.56ZM34.52 33.52V16.64H32.88V33.52H34.52ZM30.48 33.52V16.64H9.52V33.52H30.48ZM7.12 33.52V16.64H5.48V33.52H7.12ZM37.56 14.2V13.08L20 2.64L2.44 13.08V14.2H37.56ZM17.48 31.08C16.92 31.08 16.48 30.6 16.48 30.08V29.4H15.76C15.24 29.4 14.8 29 14.76 28.44C14.76 28.16 14.84 27.92 15 27.72C15.16 27.52 15.44 27.4 15.68 27.4H15.72H15.76H16.44V26.48H15.76C15.48 26.48 15.2 26.36 15.04 26.16C14.84 25.96 14.76 25.72 14.76 25.44C14.76 24.88 15.2 24.44 15.76 24.44H16.44V21H15.72C15.2 21 14.76 20.6 14.72 20.04C14.72 19.76 14.8 19.52 14.96 19.32C15.12 19.12 15.4 19 15.64 19H15.68H15.72H21.32C23.36 19 25.04 20.68 25.04 22.72C25.04 24.76 23.36 26.44 21.32 26.44H18.36V27.36H21.32C21.6 27.36 21.88 27.48 22.04 27.68C22.24 27.88 22.32 28.12 22.32 28.4C22.32 28.96 21.88 29.4 21.32 29.4H18.36V30.08C18.48 30.64 18.04 31.08 17.48 31.08ZM21.44 24.48C22.4 24.48 23.16 23.72 23.16 22.76C23.16 21.8 22.4 21.04 21.44 21.04H18.48V24.48H21.44Z"/>
</svg>
