<svg width="40" height="40" viewBox="0 0 40 40" fill="none" xmlns="http://www.w3.org/2000/svg">
<path d="M17.0802 40C14.8402 40 13.0002 38.16 13.0002 35.92C13.0002 35.28 13.5202 34.76 14.1602 34.76C14.8002 34.76 15.3202 35.28 15.3202 35.92C15.3202 36.88 16.1202 37.68 17.0802 37.68C18.0402 37.68 18.8402 36.88 18.8402 35.92V21.36C18.8402 20.32 17.4402 19.4 15.8402 19.4C14.2402 19.4 12.8402 20.32 12.8402 21.36C12.8402 22 12.3202 22.52 11.6802 22.52C11.0402 22.52 10.5202 22 10.5202 21.36C10.5202 20.32 9.12019 19.4 7.52019 19.4C5.92019 19.4 4.5202 20.32 4.5202 21.36C4.5202 22 4.0002 22.52 3.3602 22.52C2.7202 22.52 2.2002 22 2.2002 21.36C2.2002 12.72 8.56019 5.2 17.0402 3.8C17.0402 3.52 17.1202 3.24 17.2402 2.96L18.2002 1.08C18.5602 0.4 19.2402 0 20.0002 0C20.7602 0 21.4402 0.4 21.8002 1.08L22.7602 2.96C22.8802 3.2 22.9602 3.48 22.9602 3.8C31.4402 5.2 37.8002 12.72 37.8002 21.36C37.8002 22 37.2802 22.52 36.6402 22.52C36.0002 22.52 35.4802 22 35.4802 21.36C35.4802 20.32 34.0802 19.4 32.4802 19.4C30.8802 19.4 29.4802 20.32 29.4802 21.36C29.4802 22 28.9602 22.52 28.3202 22.52C27.6802 22.52 27.1602 22 27.1602 21.36C27.1602 20.32 25.7602 19.4 24.1602 19.4C22.5602 19.4 21.1602 20.32 21.1602 21.36V36.12C21.0402 38.32 19.2402 40 17.0802 40ZM7.52019 17.08C9.16019 17.08 10.6802 17.68 11.6802 18.68C12.6802 17.68 14.2002 17.08 15.8402 17.08C17.4802 17.08 19.0002 17.68 20.0002 18.68C21.0002 17.68 22.5202 17.08 24.1602 17.08C25.8002 17.08 27.3202 17.68 28.3202 18.68C29.3202 17.68 30.8402 17.08 32.4802 17.08C33.3602 17.08 34.2402 17.24 35.0002 17.6C33.3202 10.76 27.0802 5.88 20.0002 5.88C12.9202 5.88 6.68019 10.76 5.0002 17.56C5.7602 17.24 6.60019 17.08 7.52019 17.08ZM20.4002 3.52L20.0002 2.72L19.6002 3.52H20.4002Z" fill="#31ACB8"/>
</svg>
