<svg width="40" height="40" viewBox="0 0 40 40" xmlns="http://www.w3.org/2000/svg">
<path d="M10.28 17.36C6.84004 17.36 4.04004 14.56 4.04004 11.12C4.04004 7.68 6.84004 4.88 10.28 4.88C13.72 4.88 16.52 7.68 16.52 11.12C16.52 14.56 13.72 17.36 10.28 17.36ZM10.28 7.64001C8.36004 7.64001 6.80004 9.2 6.80004 11.12C6.80004 13.04 8.36004 14.6 10.28 14.6C12.2 14.6 13.76 13.04 13.76 11.12C13.76 9.2 12.2 7.64001 10.28 7.64001Z"/>
<path d="M29.7205 35.16C26.2805 35.16 23.4805 32.36 23.4805 28.92C23.4805 25.48 26.2805 22.68 29.7205 22.68C33.1605 22.68 35.9605 25.48 35.9605 28.92C35.9605 32.36 33.1605 35.16 29.7205 35.16ZM29.7205 25.44C27.8005 25.44 26.2405 27 26.2405 28.92C26.2405 30.84 27.8005 32.4 29.7205 32.4C31.6405 32.4 33.2005 30.84 33.2005 28.92C33.1605 27 31.6005 25.44 29.7205 25.44Z"/>
<path d="M5.44027 40C5.16027 40 4.84027 39.92 4.60027 39.72C4.32027 39.52 4.12027 39.16 4.04027 38.8C4.00027 38.44 4.08027 38.08 4.28027 37.76L31.8003 0.56C32.0803 0.2 32.5203 0 32.9603 0C33.2803 0 33.5603 0.08 33.8003 0.28C34.0803 0.48 34.2803 0.8 34.3203 1.2C34.3603 1.56 34.2803 1.92 34.0803 2.24L6.56027 39.44C6.28027 39.8 5.88027 40 5.44027 40Z"/>
</svg>
