<svg width="40" height="40" viewBox="0 0 40 40" xmlns="http://www.w3.org/2000/svg">
<path d="M31.7595 38.52C30.3195 38.52 28.9195 38.12 27.6795 37.4C25.6795 36.24 24.2795 34.28 23.7595 32.04L23.6795 31.64H16.3195L16.2395 32.04C15.7195 34.28 14.3195 36.12 12.3595 37.28C11.1195 38 9.67951 38.4 8.27951 38.4C5.35951 38.4 2.59951 36.84 1.15951 34.28C-0.000487518 32.36 -0.280488 30.12 0.279512 28C0.839512 25.88 2.19951 24.12 4.11951 23C5.35951 22.28 6.75951 21.92 8.19951 21.92C9.03951 21.92 9.91951 22.04 10.7195 22.32L11.1195 22.44L14.8395 16L14.5595 15.72C12.8795 14.16 11.9195 12 11.9195 9.72001C11.9195 5.20001 15.5995 1.48001 20.1195 1.48001C24.6395 1.48001 28.3195 5.16001 28.3195 9.68001C28.3195 11.96 27.3195 14.2 25.6395 15.76L25.3195 16.04L29.0395 22.48L29.4395 22.36C30.1995 22.12 30.9995 22.04 31.7995 22.04C33.2395 22.04 34.6395 22.4 35.8795 23.12C37.7995 24.2 39.1195 26 39.7195 28.12C40.2795 30.24 39.9995 32.44 38.9195 34.36C37.4395 36.92 34.7195 38.52 31.7595 38.52ZM31.7995 24.48C29.7195 24.48 27.7995 25.6 26.7595 27.36C25.9995 28.68 25.7995 30.24 26.1995 31.76C26.5995 33.24 27.5595 34.52 28.8795 35.28C29.7595 35.8 30.7595 36.04 31.7595 36.04C33.8395 36.04 35.7595 34.92 36.7995 33.16C37.5595 31.84 37.7595 30.28 37.3595 28.76C36.9595 27.28 35.9995 26 34.6795 25.24C33.7995 24.76 32.7995 24.48 31.7995 24.48ZM8.19951 24.36C7.19951 24.36 6.19951 24.64 5.31951 25.12C3.99951 25.88 3.03951 27.16 2.63951 28.64C2.23951 30.12 2.43951 31.68 3.19951 33.04C4.23951 34.84 6.15951 35.92 8.23951 35.92C9.23951 35.92 10.2395 35.64 11.1195 35.16C12.4395 34.4 13.3995 33.12 13.7995 31.64C14.1995 30.16 13.9995 28.6 13.2395 27.24C12.1995 25.44 10.2795 24.36 8.19951 24.36ZM13.4395 23.76L13.7595 24.04C14.3995 24.6 14.9195 25.28 15.3595 26C15.7995 26.76 16.1195 27.6 16.2795 28.52L16.3595 28.92H23.6795L23.7595 28.52C23.9595 27.68 24.2395 26.88 24.6795 26.16C25.1195 25.36 25.7195 24.68 26.3995 24.08L26.7195 23.8L23.0395 17.4L22.6395 17.52C21.8395 17.8 20.9995 17.92 20.1195 17.92C19.2395 17.92 18.3595 17.76 17.5195 17.48L17.1195 17.36L13.4395 23.76ZM20.1195 3.92001C16.9195 3.92001 14.3195 6.52001 14.3195 9.72001C14.3195 12.92 16.9195 15.52 20.1195 15.52C23.3195 15.52 25.9195 12.92 25.9195 9.72001C25.9195 6.52001 23.3195 3.92001 20.1195 3.92001Z"/>
</svg>
