<svg width="40" height="40" viewBox="0 0 40 40" xmlns="http://www.w3.org/2000/svg">
<path fill-rule="evenodd" clip-rule="evenodd" d="M6.13964 6.32389C6.31662 6.10266 6.63927 5.74416 7.10414 5.29429C7.86542 4.55756 8.76102 3.82346 9.78807 3.13876C12.7276 1.17909 16.1469 0 19.9995 0C23.852 0 27.2714 1.17909 30.2109 3.13876C31.238 3.82346 32.1335 4.55756 32.8948 5.29429C33.3597 5.74416 33.6823 6.10266 33.8593 6.32389C34.0262 6.53249 34.1171 6.79168 34.1171 7.05882V28.2336C34.1171 29.259 33.5078 30.454 32.681 31.0553L20.6914 39.775C20.2789 40.075 19.7201 40.075 19.3075 39.775L7.31794 31.0553C6.48855 30.4521 5.88184 29.2584 5.88184 28.2336V7.05882C5.88184 6.79168 5.97276 6.53249 6.13964 6.32389ZM8.23478 28.2336C8.23478 28.5063 8.48185 28.9924 8.70188 29.1524L19.9995 37.3688L31.2971 29.1524C31.5155 28.9936 31.7642 28.5057 31.7642 28.2336V7.50124C31.6187 7.34359 31.45 7.17044 31.2585 6.98512C30.5952 6.34318 29.8088 5.6986 28.9057 5.09653C26.3305 3.37973 23.3528 2.35294 19.9995 2.35294C16.6461 2.35294 13.6684 3.37973 11.0933 5.09653C10.1902 5.6986 9.40376 6.34318 8.74042 6.98512C8.54893 7.17044 8.38024 7.34359 8.23478 7.50124V28.2336ZM15.135 12.3347C15.6362 11.9211 16.3777 11.9921 16.7912 12.4933C17.2048 12.9944 17.1338 13.7359 16.6326 14.1495C15.4199 15.1502 14.7054 16.6331 14.7054 18.2353C14.7054 21.1592 17.0756 23.5294 19.9995 23.5294C22.9233 23.5294 25.2936 21.1592 25.2936 18.2353C25.2936 16.6328 24.5788 15.1497 23.3658 14.149C22.8646 13.7356 22.7935 12.9941 23.207 12.4929C23.6204 11.9916 24.3619 11.9205 24.8631 12.334C26.6123 13.777 27.6465 15.9229 27.6465 18.2353C27.6465 22.4586 24.2228 25.8823 19.9995 25.8823C15.7761 25.8823 12.3524 22.4586 12.3524 18.2353C12.3524 15.9232 13.3863 13.7777 15.135 12.3347ZM18.823 11.7647C18.823 11.115 19.3497 10.5882 19.9995 10.5882C20.6492 10.5882 21.176 11.115 21.176 11.7647V17.6471C21.176 18.2968 20.6492 18.8235 19.9995 18.8235C19.3497 18.8235 18.823 18.2968 18.823 17.6471V11.7647Z"/>
</svg>
