<svg width="40" height="40" viewBox="0 0 40 40" fill="none" xmlns="http://www.w3.org/2000/svg">
<g clip-path="url(#clip0)">
<path d="M15.6796 22.92C15.0796 22.92 14.5596 23.44 14.5596 24.04C14.5596 24.64 15.0796 25.16 15.6796 25.16H17.6396V27.76C17.6396 28.36 18.1596 28.88 18.7596 28.88C19.3596 28.88 19.8796 28.36 19.8796 27.76V25.16H25.3196C25.9196 25.16 26.4396 24.64 26.4396 24.04C26.4396 23.44 25.9196 22.92 25.3196 22.92H19.8796V21.6H22.5996C25.4796 21.6 27.8396 19.24 27.8396 16.36C27.8396 13.48 25.4796 11.12 22.5996 11.12H18.7596C18.1596 11.12 17.6396 11.64 17.6396 12.24V19.36H15.6796C15.0796 19.36 14.5596 19.88 14.5596 20.48C14.5596 21.08 15.0796 21.6 15.6796 21.6H17.6396V22.92H15.6796ZM19.8796 13.36H22.5996C24.2396 13.36 25.5996 14.72 25.5996 16.36C25.5996 18 24.2396 19.36 22.5996 19.36H19.8796V13.36Z" fill="#31ACB8"/>
<path d="M21.3203 38.68C11.6003 38.68 3.52031 31.24 2.68032 21.64L2.12032 22.36C1.88032 22.64 1.56032 22.8 1.20032 22.8C0.920315 22.8 0.680315 22.72 0.480315 22.56C-0.0396846 22.16 -0.119685 21.4 0.280315 20.88L2.80032 17.64L2.84032 17.6L2.88032 17.56L2.92032 17.52L2.96032 17.48L3.00032 17.44C3.04032 17.4 3.08032 17.36 3.16032 17.36C3.20032 17.36 3.20032 17.32 3.24032 17.32H3.28032C3.32032 17.32 3.36032 17.28 3.36032 17.28C3.40032 17.28 3.44032 17.28 3.44032 17.24H3.48032C3.52032 17.24 3.52032 17.24 3.56032 17.24C3.60032 17.24 3.60032 17.24 3.64032 17.24H3.68032H3.72032H3.76032C3.80032 17.24 3.80032 17.24 3.84032 17.24H3.88032C3.92032 17.24 3.96031 17.24 3.96031 17.24C4.00032 17.24 4.04032 17.28 4.04032 17.28H4.08032C4.12032 17.28 4.12032 17.28 4.16032 17.32C4.20031 17.36 4.24032 17.36 4.32032 17.4C4.36032 17.4 4.36031 17.44 4.36031 17.44C4.40032 17.48 4.40032 17.48 4.44032 17.52L4.48032 17.56C4.52032 17.6 4.52032 17.6 4.56032 17.64L7.24031 20.88C7.44031 21.12 7.52031 21.44 7.52031 21.76C7.48031 22.08 7.32031 22.36 7.08032 22.56C6.96031 22.72 6.68032 22.8 6.40032 22.8C6.04032 22.8 5.72031 22.64 5.48032 22.36L5.12032 21.92C6.08032 30 13.0803 36.28 21.2803 36.28C30.2803 36.28 37.6003 29 37.6003 20C37.6003 11 30.2803 3.72001 21.3203 3.72001C15.7603 3.72001 10.6403 6.52001 7.64031 11.2C7.40031 11.56 7.04031 11.76 6.64032 11.76C6.40031 11.76 6.20031 11.68 6.00032 11.56C5.44032 11.2 5.28032 10.44 5.64032 9.92001C9.04031 4.52001 14.9203 1.32001 21.3203 1.32001C31.6003 1.32001 40.0003 9.68001 40.0003 20C40.0003 30.32 31.6003 38.68 21.3203 38.68Z" fill="#31ACB8"/>
</g>
<defs>
<clipPath id="clip0">
<rect width="40" height="40" fill="white"/>
</clipPath>
</defs>
</svg>
