<svg width="40" height="40" viewBox="0 0 40 40" xmlns="http://www.w3.org/2000/svg">
<path d="M16.1196 24.36L19.0797 21.32C19.5197 20.84 19.5196 20.12 19.0396 19.64C18.5596 19.2 17.8397 19.2 17.3597 19.68L14.0396 23.08V20.48C14.0396 19.84 13.5196 19.28 12.8396 19.28C12.1996 19.28 11.6396 19.8 11.6396 20.48V28.24C11.6396 28.88 12.1596 29.44 12.8396 29.44C13.4796 29.44 14.0396 28.92 14.0396 28.24V25.64L17.3597 29.04C17.5997 29.28 17.8796 29.4 18.1996 29.4C18.4797 29.4 18.7996 29.28 19.0396 29.08C19.5196 28.64 19.5197 27.88 19.0797 27.4L16.1196 24.36Z"/>
<path d="M27.1197 23.52H25.3597C24.7197 23.52 24.1597 24.04 24.1597 24.72C24.1597 25.4 24.6797 25.92 25.3597 25.92H25.9197C25.7997 26.6 25.2397 27.12 24.5197 27.12C23.7197 27.12 23.1197 26.48 23.1197 25.72V23.16C23.1197 22.36 23.7597 21.76 24.5197 21.76C24.9597 21.76 25.3597 21.96 25.6397 22.32C26.0397 22.84 26.7997 22.92 27.2797 22.52C27.7997 22.12 27.8797 21.36 27.4797 20.88C26.7597 19.96 25.6797 19.44 24.4797 19.44C22.3997 19.44 20.6797 21.12 20.6797 23.24V25.8C20.6797 27.88 22.3597 29.6 24.4797 29.6C26.5597 29.6 28.2797 27.92 28.2797 25.8V24.84C28.2797 24.04 27.7597 23.52 27.1197 23.52Z"/>
<path d="M8.28028 40C6.12028 40 4.08028 39.04 2.72028 37.4C1.36028 35.76 0.800279 33.6 1.16028 31.52L4.12028 14.76C4.72028 11.28 7.76028 8.76 11.2803 8.76H15.4403L15.1203 8.16C14.6803 7.32 14.4803 6.48 14.4803 5.56C14.4803 4.08 15.0403 2.72 16.0403 1.64C17.1203 0.6 18.5203 0 20.0003 0C23.0803 0 25.5603 2.48 25.5603 5.56C25.5603 6.44 25.3603 7.32 24.9203 8.16L24.6003 8.76H28.7603C32.2803 8.76 35.2803 11.28 35.9203 14.76L38.8403 31.52C39.2403 33.64 38.6403 35.8 37.2403 37.44C35.8803 39.08 33.8403 40.04 31.6803 40.04H8.28028V40ZM11.2803 11.08C8.88028 11.08 6.88028 12.8 6.48028 15.12L3.48028 31.88C3.20028 33.28 3.60028 34.76 4.56028 35.88C5.48028 37 6.84028 37.6 8.32028 37.6H31.7203C33.2003 37.6 34.5203 37 35.4803 35.88C36.4403 34.76 36.8003 33.28 36.5603 31.88L33.6003 15.12C33.2003 12.76 31.1603 11.08 28.8003 11.08H11.2803ZM20.0003 2.32C18.2403 2.32 16.8003 3.76 16.8003 5.52C16.8003 7.24 18.2403 8.72 20.0003 8.72C21.7603 8.72 23.2003 7.28 23.2003 5.52C23.2003 3.76 21.7603 2.32 20.0003 2.32Z"/>
</svg>
