<svg width="40" height="40" viewBox="0 0 40 40" xmlns="http://www.w3.org/2000/svg">
<g clip-path="url(#clip0)">
<path d="M6.15988 9.39999C6.11988 9.47999 6.11988 9.43999 6.15988 9.39999V9.39999Z"/>
<path d="M9.40006 6.16C9.32006 6.24 9.12006 6.4 9.40006 6.16V6.16Z"/>
<path d="M33.8396 9.44001C33.7596 9.36001 33.5996 9.12001 33.8396 9.44001V9.44001Z"/>
<path d="M6.15918 30.6C6.19918 30.68 6.39918 30.88 6.15918 30.6V30.6Z"/>
<path d="M30.5999 6.15999C30.5199 6.11999 30.5599 6.15999 30.5999 6.15999V6.15999Z"/>
<path d="M33.8398 30.6C33.9198 30.52 33.8798 30.56 33.8398 30.6V30.6Z"/>
<path d="M39.9996 20C39.9996 17.92 39.6796 15.84 39.0396 13.88C38.3996 11.96 37.5196 10.12 36.3596 8.52C35.1596 6.8 33.7196 5.36 32.0396 4.08C30.4396 2.88 28.6796 1.92 26.7996 1.24C24.8796 0.48 22.7996 0.0799997 20.7596 -3.18512e-07C18.6796 -0.0800003 16.5596 0.16 14.5596 0.76C12.6396 1.32 10.7596 2.16 9.0796 3.24C7.4396 4.32 5.9196 5.64 4.6396 7.2C3.2796 8.84 2.2396 10.6 1.4396 12.56C0.639597 14.44 0.199597 16.48 0.039597 18.52C-0.120403 20.6 0.079597 22.72 0.559597 24.76C1.0396 26.72 1.8396 28.64 2.8796 30.36C3.9196 32.04 5.1996 33.6 6.6796 34.92C8.1596 36.24 9.8396 37.36 11.6396 38.16C13.5996 39.04 15.6396 39.6 17.7996 39.84C19.8796 40.08 22.0396 39.96 24.0796 39.56C26.0396 39.16 27.9596 38.44 29.7196 37.44C31.4396 36.48 33.0396 35.24 34.3996 33.8C35.7596 32.36 36.9596 30.72 37.8396 28.92C38.7996 27.16 39.4396 25.2 39.7196 23.2C39.9196 22.12 39.9996 21.08 39.9996 20ZM37.2796 22.36C37.0396 23.88 36.6396 25.4 36.0796 26.8C35.7196 27.6 35.3196 28.4 34.8396 29.16C34.5996 29.56 34.3196 29.96 34.0396 30.32C33.9596 30.4 33.9196 30.52 33.8396 30.6C33.7996 30.64 33.7596 30.72 33.7196 30.72C33.7196 30.72 33.7596 30.64 33.7996 30.6C33.6396 30.8 33.4796 31 33.3596 31.16C32.7596 31.88 32.0796 32.56 31.3996 33.16C31.2396 33.32 31.0796 33.44 30.8796 33.6C30.7996 33.68 30.7196 33.76 30.5996 33.8C30.5596 33.84 30.5196 33.84 30.5196 33.88C30.5196 33.88 30.5196 33.88 30.5596 33.84C30.1996 34.12 29.7996 34.4 29.3996 34.64C28.5596 35.16 27.6796 35.64 26.7596 36.04C25.3196 36.64 23.8396 37.04 22.3196 37.24C20.7596 37.44 19.1996 37.44 17.6396 37.24C16.1196 37 14.5996 36.6 13.1996 36.04C12.3996 35.68 11.5996 35.28 10.8396 34.8C10.4396 34.56 10.0396 34.28 9.6796 34C9.5996 33.92 9.4796 33.88 9.3996 33.8C9.3596 33.76 9.2796 33.72 9.2796 33.68C9.2796 33.68 9.3596 33.72 9.3996 33.76C9.1996 33.6 8.9996 33.44 8.8396 33.32C8.1196 32.72 7.4396 32.08 6.8396 31.36C6.6796 31.2 6.5596 31.04 6.3996 30.84C6.3196 30.76 6.2396 30.68 6.1996 30.56C6.1596 30.52 6.1596 30.48 6.1196 30.48C6.1196 30.48 6.1196 30.48 6.1596 30.52C5.8796 30.16 5.5996 29.76 5.3596 29.36C4.8396 28.52 4.3596 27.64 3.9596 26.72C3.3596 25.28 2.9596 23.8 2.7596 22.28C2.5596 20.72 2.5596 19.16 2.7596 17.6C2.9996 16.08 3.3996 14.56 3.9596 13.16C4.3196 12.36 4.7196 11.56 5.1996 10.8C5.4396 10.4 5.7196 10 5.9996 9.64C6.0796 9.56 6.1196 9.44 6.1996 9.36C6.2396 9.32 6.2796 9.24 6.3196 9.24C6.3196 9.24 6.2796 9.32 6.2396 9.36C6.3996 9.16 6.5596 8.96 6.6796 8.8C7.2796 8.08 7.9596 7.4 8.6396 6.8C8.7996 6.64 8.9596 6.52 9.1596 6.36C9.2396 6.28 9.3196 6.2 9.4396 6.16C9.4796 6.12 9.5196 6.12 9.5196 6.08C9.5196 6.08 9.5196 6.08 9.4796 6.12C9.8396 5.84 10.2396 5.56 10.6396 5.32C11.4796 4.8 12.3596 4.32 13.2796 3.92C14.7196 3.32 16.1996 2.92 17.7196 2.72C19.2796 2.52 20.8396 2.52 22.3996 2.72C23.9196 2.96 25.4396 3.36 26.8396 3.92C27.6396 4.28 28.4396 4.68 29.1996 5.16C29.5996 5.4 29.9996 5.68 30.3596 5.96C30.4396 6.04 30.5596 6.08 30.6396 6.16C30.6796 6.2 30.7596 6.24 30.7596 6.28C30.7596 6.28 30.6796 6.24 30.6396 6.2C30.8396 6.36 31.0396 6.52 31.1996 6.64C31.9196 7.24 32.5996 7.92 33.1996 8.6C33.3596 8.76 33.4796 8.92 33.6396 9.12C33.7196 9.2 33.7996 9.28 33.8396 9.4C33.8796 9.44 33.8796 9.48 33.9196 9.48C33.9196 9.48 33.9196 9.48 33.8796 9.44C34.1596 9.8 34.4396 10.2 34.6796 10.6C35.1996 11.44 35.6796 12.32 36.0796 13.24C36.6796 14.72 37.1196 16.28 37.3196 17.84C37.3996 18.56 37.4396 19.28 37.4796 20C37.4396 20.8 37.3596 21.56 37.2796 22.36Z"/>
<path d="M9.39941 33.84C9.47941 33.88 9.43941 33.88 9.39941 33.84V33.84Z"/>
<path d="M30.5996 33.84C30.6796 33.8 30.8796 33.6 30.5996 33.84V33.84Z"/>
<path d="M28.1192 13.08C27.7192 13.48 27.3192 13.88 26.9192 14.28C25.9592 15.24 24.9992 16.2 24.0392 17.16C22.8792 18.32 21.7192 19.48 20.5592 20.64C19.5592 21.64 18.5592 22.64 17.5592 23.64C17.3592 23.84 17.1592 24 16.9992 24.2C16.6392 23.84 16.2392 23.44 15.8792 23.08C14.7992 22 13.7192 20.92 12.5992 19.8C12.3592 19.56 12.1192 19.32 11.8392 19.04C11.3592 18.56 10.4792 18.52 10.0392 19.04C9.55921 19.56 9.51921 20.36 10.0392 20.84C10.7192 21.52 11.3992 22.2 12.0792 22.88C13.1592 23.96 14.2392 25.04 15.3592 26.16C15.5992 26.4 15.8392 26.64 16.1192 26.92C16.5992 27.4 17.4392 27.4 17.9192 26.92C18.3192 26.52 18.7192 26.12 19.1192 25.72C20.0792 24.76 21.0392 23.8 21.9992 22.84C23.1592 21.68 24.3192 20.52 25.4792 19.36C26.4792 18.36 27.4792 17.36 28.4792 16.36C28.9592 15.88 29.4792 15.4 29.9192 14.92C29.9192 14.92 29.9192 14.92 29.9592 14.88C30.4392 14.4 30.4792 13.52 29.9592 13.08C29.4392 12.6 28.6392 12.56 28.1192 13.08Z"/>
</g>
<defs>
<clipPath id="clip0">
<rect width="40" height="40" fill="white"/>
</clipPath>
</defs>
</svg>
