<svg width="40" height="40" viewBox="0 0 40 40" xmlns="http://www.w3.org/2000/svg">
<path d="M19.1998 39.2C16.3198 39.2 13.4798 38.56 10.8798 37.32C1.31978 32.68 -2.68022 21.2 1.91978 11.68C1.91978 11.64 1.95978 11.6 1.95978 11.56C5.15978 5.03999 11.9198 0.839988 19.1998 0.799988C19.9198 0.799988 20.6798 0.839988 21.3998 0.919988H21.5598L21.7198 0.959988C24.6398 1.35999 27.4798 2.43999 29.9598 4.11999L30.0798 4.15999H30.1198C30.2798 4.23999 30.3998 4.31999 30.4798 4.43999C34.1198 7.07999 36.6798 10.84 37.7998 15.16C37.9998 14.8 38.3998 14.6 38.8398 14.6C38.9198 14.6 38.9998 14.6 39.1198 14.64C39.7198 14.76 40.1198 15.32 40.0798 15.96C39.9598 17.92 39.3598 19.92 38.3598 21.64C37.9598 26.44 35.7998 30.88 32.2398 34.12C28.6398 37.4 24.0798 39.2 19.2798 39.2H19.1998ZM11.1198 34.68C13.5998 36.04 16.3598 36.76 19.1998 36.76C20.4398 36.76 21.6798 36.64 22.8798 36.36C20.8398 35.36 18.9198 34.16 17.1598 32.76L16.5998 32.36C15.1198 31.32 13.7598 30.36 12.9198 30.12C12.8398 30.08 12.7598 30.08 12.6398 30.08C11.9598 30.08 11.3598 30.72 10.9998 31.36C10.4798 32.4 10.3198 33.88 11.1198 34.68ZM12.6398 27.68C12.9198 27.68 13.2398 27.72 13.5198 27.8C14.7998 28.12 16.5198 29.36 18.5598 30.8C20.8798 32.48 24.3998 34.96 26.3598 34.96C26.6798 34.96 26.9198 34.88 27.1198 34.76L27.2398 34.68H27.3198C28.5598 34 29.6798 33.2 30.7198 32.24C31.1598 30.64 31.3598 28.96 31.2798 27.28C29.1998 28.04 26.9998 28.52 24.7598 28.64V30.64C24.7598 31.08 24.5198 31.48 24.1198 31.72C23.9598 31.8 23.7598 31.88 23.5598 31.88C23.3198 31.88 23.0798 31.8 22.9198 31.68L12.7198 25.24C12.5198 25.12 12.3598 24.96 12.2798 24.76C12.1198 24.48 12.1198 24.16 12.1998 23.84C12.2798 23.52 12.5198 23.28 12.7998 23.12L22.8798 17.6C23.0398 17.52 23.2398 17.44 23.4798 17.44C23.7998 17.44 24.1198 17.56 24.3198 17.8C24.5598 18.04 24.6798 18.32 24.6798 18.64V21.12C24.7198 21.12 24.7598 21.12 24.7998 21.12C26.1998 21.12 27.5998 21 28.9998 20.8C27.7198 18.88 26.8798 15.96 26.6798 12.6C26.4798 9.67999 26.7998 6.87999 27.4798 5.39999C25.5998 4.31999 23.5598 3.63999 21.3998 3.35999C21.2398 3.39999 21.0798 3.51999 20.9998 3.63999C19.9198 4.95999 19.3998 8.59999 20.4398 12.12C21.2398 14.96 20.3998 17.48 18.2798 18.72C17.4798 19.16 16.5998 19.4 15.6798 19.4H15.5998C14.1598 19.4 11.9198 18.88 9.31978 16.32C6.31978 13.28 4.67978 12.96 4.07978 12.96C3.99978 12.96 3.95978 12.96 3.91978 12.96C0.799781 19.76 2.51978 27.68 8.15978 32.56C8.23978 31.72 8.47978 30.92 8.83978 30.2C9.67978 28.68 11.1198 27.68 12.6398 27.68ZM33.5598 26.2C33.6398 26.96 33.6798 27.76 33.6398 28.52C34.2798 27.48 34.7598 26.32 35.1198 25.16C34.6398 25.56 34.0798 25.92 33.5598 26.2ZM22.2798 28.4V27.48C22.2798 27.16 22.3998 26.84 22.6398 26.6C22.8798 26.36 23.1598 26.24 23.4798 26.24C23.4798 26.24 23.6398 26.24 23.7198 26.24C24.4398 26.24 26.9998 26.16 29.7198 25.28C32.4398 24.4 34.4798 22.96 35.7998 21.08C32.2398 23.2 27.5198 23.56 24.8398 23.56C24.2398 23.56 23.7998 23.56 23.5598 23.52C23.5198 23.52 23.5198 23.52 23.5198 23.52H23.3598C22.7198 23.44 22.2398 22.88 22.2798 22.28V20.64L15.7598 24.2L22.2798 28.4ZM29.4798 6.79999C29.2398 7.43999 29.1198 8.07999 29.0798 8.71999C28.6798 12.4 29.3598 17.56 31.3198 19.96C31.3998 20.04 31.4798 20.16 31.5598 20.28C33.1198 19.88 34.5598 19.12 35.7998 18.12C35.3198 13.64 33.0398 9.55999 29.4798 6.79999ZM5.23978 10.72C6.55978 11.04 8.47978 12.04 11.0798 14.64C12.5998 16.16 14.2398 17.04 15.6798 17.04C16.1998 17.04 16.6798 16.92 17.0798 16.68C18.1998 16.04 18.5598 14.56 18.0798 12.84C17.0398 9.31999 17.1998 5.59999 18.3598 3.23999C12.9998 3.51999 8.15978 6.27999 5.23978 10.72Z"/>
</svg>
