<svg width="40" height="40" viewBox="0 0 40 40" fill="none" xmlns="http://www.w3.org/2000/svg">
<g clip-path="url(#clip0)">
<path d="M4.87957 40C4.23957 40 3.71957 39.48 3.71957 38.84V31.24H2.71957C2.07957 31.24 1.55957 30.72 1.55957 30.08C1.55957 29.44 2.07957 28.92 2.71957 28.92H3.75957V21.16H2.71957C2.07957 21.16 1.55957 20.64 1.55957 20C1.55957 19.36 2.07957 18.84 2.71957 18.84H3.75957V11.04H2.71957C2.07957 11.04 1.55957 10.52 1.55957 9.88C1.55957 9.24 2.07957 8.72 2.71957 8.72H3.75957V1.12C3.75957 0.479999 4.27957 -0.0400009 4.91957 -0.0400009H37.3196C37.9596 -0.0400009 38.4796 0.479999 38.4796 1.12V38.84C38.4796 39.48 37.9596 40 37.3196 40H4.87957ZM6.03957 37.72H36.1596V2.28H6.03957V8.76H7.43957C8.07957 8.76 8.59957 9.28 8.59957 9.92C8.59957 10.56 8.07957 11.08 7.43957 11.08H6.03957V18.88H7.43957C7.87957 18.88 8.23957 19.12 8.43957 19.48L8.71957 20L8.39957 20.56C8.19957 20.92 7.83957 21.12 7.43957 21.12H6.07957V28.92H7.47957C8.11957 28.92 8.63957 29.44 8.63957 30.08C8.63957 30.72 8.11957 31.24 7.47957 31.24H6.07957V37.72H6.03957ZM21.6796 33.28C14.5996 33.28 8.91957 27.76 8.75957 20.68V20.08L8.79957 19.36C9.31957 12.64 14.9596 7.4 21.6796 7.4H22.0796C22.7996 7.4 23.5596 7.52 24.2796 7.68C29.3596 8.72 33.3196 12.68 34.3596 17.76C35.7996 24.76 31.2796 31.6 24.2796 33C23.5596 33.16 22.7996 33.24 22.0796 33.24H21.6796V33.28ZM21.6796 9.68C15.7996 9.68 11.0396 14.44 11.0396 20.32C11.0396 26.16 15.8396 30.96 21.6796 30.96H21.9596C22.5996 30.96 23.1996 30.88 23.7996 30.76C27.9996 29.92 31.2796 26.64 32.1196 22.44C33.2796 16.68 29.5596 11.08 23.7996 9.92C23.1996 9.8 22.5996 9.72 21.9596 9.72H21.6796V9.68Z" fill="#31ACB8"/>
<path d="M19.9198 27.2C19.7198 27.2 19.4798 27.12 19.3198 26.96C19.1598 26.8 19.0798 26.6 19.0798 26.36V24.28H17.8798C17.4398 24.28 17.0398 23.92 16.9998 23.48C16.9598 23.04 17.3598 22.64 17.7998 22.6H19.0798V21.92H17.8798C17.4398 21.92 17.0398 21.52 17.0398 21.08C17.0398 20.64 17.4398 20.24 17.8798 20.24H19.0798V16.08H17.8798C17.4398 16.08 17.0398 15.72 16.9998 15.28C16.9598 14.84 17.3598 14.44 17.7998 14.4H23.9998C26.0798 14.4 27.7598 16.08 27.7598 18.16C27.7598 20.24 26.0798 21.92 23.9998 21.92H20.7198V22.6H24.5598C24.9998 22.6 25.3998 23 25.3998 23.44C25.3998 23.88 24.9998 24.28 24.5598 24.28H20.7198V26.36C20.7198 26.56 20.6398 26.8 20.4798 26.96C20.3598 27.12 20.1198 27.2 19.9198 27.2ZM24.0398 20.24C25.1998 20.24 26.1198 19.32 26.1198 18.16C26.1198 17 25.1998 16.08 24.0398 16.08H20.7598V20.24H24.0398Z" fill="#31ACB8"/>
</g>
<defs>
<clipPath id="clip0">
<rect width="40" height="40" fill="white"/>
</clipPath>
</defs>
</svg>
