<svg width="20" height="20" viewBox="0 0 20 20" xmlns="http://www.w3.org/2000/svg">
<path d="M16.5 9.5H16V6.0625C16 5.66468 15.842 5.28314 15.5607 5.00184C15.2794 4.72054 14.8978 4.5625 14.5 4.5625H14.426V4.135C14.4261 4.06926 14.4131 4.00416 14.388 3.94341C14.3629 3.88267 14.326 3.82748 14.2795 3.781L12.6435 2.146C12.5497 2.05241 12.4225 1.9999 12.29 2H6.7C6.4013 2.00093 6.11514 2.12013 5.90411 2.33153C5.69309 2.54292 5.5744 2.8293 5.574 3.128V4.5625H5.5C5.10218 4.5625 4.72064 4.72054 4.43934 5.00184C4.15804 5.28314 4 5.66468 4 6.0625V9.5H3.5C3.10218 9.5 2.72064 9.65804 2.43934 9.93934C2.15804 10.2206 2 10.6022 2 11V16.5C2 16.8978 2.15804 17.2794 2.43934 17.5607C2.72064 17.842 3.10218 18 3.5 18H16.5C16.8978 18 17.2794 17.842 17.5607 17.5607C17.842 17.2794 18 16.8978 18 16.5V11C18 10.6022 17.842 10.2206 17.5607 9.93934C17.2794 9.65804 16.8978 9.5 16.5 9.5ZM14.5 5.5625C14.6326 5.5625 14.7598 5.61518 14.8536 5.70895C14.9473 5.80272 15 5.92989 15 6.0625V9.5H14.426V5.5625H14.5ZM6.574 3.128C6.57438 3.09451 6.58771 3.06247 6.6112 3.03861C6.6347 3.01474 6.66652 3.0009 6.7 3H12.083L13.426 4.342V9.5H6.574V3.128ZM5 6.0625C5 5.92989 5.05268 5.80272 5.14645 5.70895C5.24021 5.61518 5.36739 5.5625 5.5 5.5625H5.574V9.5H5V6.0625ZM13.8435 15.5H6.156V15H13.8435V15.5ZM6.156 17V16.5H13.8435V17H6.156ZM17 16.5C17 16.6326 16.9473 16.7598 16.8536 16.8536C16.7598 16.9473 16.6326 17 16.5 17H14.8435V14.5C14.8435 14.3674 14.7908 14.2402 14.6971 14.1464C14.6033 14.0527 14.4761 14 14.3435 14H5.656C5.52339 14 5.39621 14.0527 5.30245 14.1464C5.20868 14.2402 5.156 14.3674 5.156 14.5V17H3.5C3.36739 17 3.24021 16.9473 3.14645 16.8536C3.05268 16.7598 3 16.6326 3 16.5V11C3 10.8674 3.05268 10.7402 3.14645 10.6464C3.24021 10.5527 3.36739 10.5 3.5 10.5H16.5C16.6326 10.5 16.7598 10.5527 16.8536 10.6464C16.9473 10.7402 17 10.8674 17 11V16.5Z"/>
<path d="M14.343 11.0625H13.543C13.4104 11.0625 13.2832 11.1152 13.1894 11.2089C13.0956 11.3027 13.043 11.4299 13.043 11.5625C13.043 11.6951 13.0956 11.8223 13.1894 11.9161C13.2832 12.0098 13.4104 12.0625 13.543 12.0625H14.343C14.4756 12.0625 14.6028 12.0098 14.6965 11.9161C14.7903 11.8223 14.843 11.6951 14.843 11.5625C14.843 11.4299 14.7903 11.3027 14.6965 11.2089C14.6028 11.1152 14.4756 11.0625 14.343 11.0625Z"/>
</svg>
