<svg width="24" height="24" viewBox="0 0 24 24" fill="none" xmlns="http://www.w3.org/2000/svg">
<path d="M20.6 16.5C18.2 14.9 15.1 14 12 14C8.9 14 5.8 14.9 3.4 16.5C2.5 17.1 2 17.9 2 18.9V22H22V18.9C22 17.9 21.5 17.1 20.6 16.5ZM20 20H4V18.9C4 18.7 4.2 18.4 4.5 18.2C6.6 16.8 9.2 16 12 16C14.8 16 17.4 16.8 19.5 18.1C19.8 18.3 20 18.6 20 18.8V20Z" fill="#31ACB8"/>
<path d="M12 12C14.8 12 17 9.8 17 7C17 4.2 14.8 2 12 2C9.2 2 7 4.2 7 7C7 9.8 9.2 12 12 12ZM12 4C13.7 4 15 5.3 15 7C15 8.7 13.7 10 12 10C10.3 10 9 8.7 9 7C9 5.3 10.3 4 12 4Z" fill="#31ACB8"/>
<rect x="13" y="13" width="10" height="10" rx="1" fill="white" stroke="#31ACB8" stroke-width="2"/>
<line x1="16" y1="17" x2="20" y2="17" stroke="#31ACB8" stroke-width="2"/>
</svg>
