<svg width="24" height="24" viewBox="0 0 24 24" fill="none" xmlns="http://www.w3.org/2000/svg">
<path d="M17.5084 15.7794C17.5736 15.6955 17.6295 15.6116 17.6901 15.5277C17.7507 15.4438 17.8672 15.2807 17.9511 15.1549C18.035 15.0291 18.0676 14.9685 18.1235 14.88C18.1794 14.7914 18.2773 14.6236 18.3518 14.4932C18.4264 14.3627 18.4544 14.3021 18.501 14.2042C18.5476 14.1064 18.6361 13.9339 18.6967 13.7941C18.7573 13.6543 18.7806 13.5984 18.8225 13.5005C18.8645 13.4027 18.8878 13.3561 18.9157 13.2815C19.0643 12.9014 19.1889 12.5122 19.2885 12.1165H16.8652C16.6216 12.8523 16.2647 13.5457 15.8074 14.1716C15.7002 14.3161 15.593 14.4559 15.4765 14.591L15.3973 14.6796C15.3041 14.7852 15.2093 14.8893 15.113 14.9918L15.0012 15.1036C14.908 15.1937 14.8132 15.2823 14.7169 15.3693L14.5911 15.4765C14.4932 15.5603 14.3907 15.6396 14.2835 15.7188L14.1577 15.812C14.0365 15.9005 13.9153 15.9844 13.7895 16.0636L13.7056 16.1196C13.5503 16.2159 13.395 16.3075 13.2396 16.3945L13.1744 16.4271C13.0346 16.497 12.8948 16.5669 12.7503 16.6275L12.5825 16.6928L12.2377 16.8233L12.0373 16.8885L11.7017 16.9864L11.492 17.0376L11.1472 17.1075L10.9375 17.1448L10.5553 17.1914H10.3736C10.1825 17.1914 9.99146 17.2147 9.80039 17.2147C9.60932 17.2147 9.33437 17.2147 9.10136 17.1774L8.89631 17.1541C8.7332 17.1541 8.5701 17.1075 8.43029 17.0796L8.21592 17.0376C8.04816 17.0003 7.88349 16.9568 7.72194 16.9071L7.5635 16.8605C7.12667 16.7199 6.70388 16.5389 6.30058 16.32L6.22136 16.2733C6.04738 16.177 5.8765 16.073 5.70874 15.9611L5.59223 15.9285C5.42136 15.8104 5.2567 15.6862 5.09825 15.5557L5.05165 15.5184C4.87456 15.3693 4.70214 15.2108 4.53437 15.0524L7.45631 12.1165H0V19.5728L2.87534 16.6928C3.74836 17.5682 4.77936 18.2703 5.91379 18.7619L6.08155 18.8318C6.30058 18.9203 6.51961 19.0042 6.7433 19.0741L6.99961 19.1533C7.20466 19.2139 7.40971 19.2652 7.61942 19.3118L7.91301 19.377C8.12738 19.419 8.34175 19.4469 8.55612 19.4749L8.83573 19.5122C9.1433 19.5401 9.45553 19.5588 9.76777 19.5588C10.08 19.5588 10.313 19.5588 10.5833 19.5215L10.8489 19.4889C11.026 19.4889 11.2031 19.4469 11.3755 19.419L11.6878 19.3584C11.8416 19.3258 11.9953 19.2978 12.1538 19.2559L12.48 19.1673L12.9087 19.0368L13.235 18.9203L13.6357 18.7572L13.9806 18.6407L14.3581 18.4497L14.6656 18.2819L15.0245 18.0629L15.3181 17.8718C15.4346 17.7926 15.5511 17.704 15.6629 17.6201L15.8447 17.4757L22.3689 24L24.0093 22.3689L17.485 15.8446L17.5084 15.7794Z" fill="#31ACB8"/>
<path d="M2.51661 8.15534C2.59961 7.7902 2.71022 7.43189 2.84749 7.0835C2.84749 7.03223 2.88477 6.98097 2.90341 6.93437C3.059 6.56269 3.24446 6.20423 3.45797 5.86252L3.56982 5.69942C3.64438 5.58757 3.71428 5.47573 3.79351 5.36854L3.94263 5.17748C4.01719 5.08427 4.0871 4.99107 4.16632 4.90252L4.34341 4.71146C4.41797 4.62757 4.4972 4.54835 4.57642 4.46913L4.77215 4.28738L5.01914 4.06835L5.23351 3.90058L5.49448 3.70485L5.72283 3.55107L6.00244 3.37864L6.24011 3.24349L6.5337 3.09437L6.78069 2.97786L7.09292 2.84738L7.34457 2.74951L7.67545 2.64699L7.9271 2.57243L8.29059 2.4932L8.53292 2.44194C8.66807 2.44194 8.80787 2.40466 8.94302 2.38602L9.15273 2.35806C9.36244 2.35806 9.57215 2.3301 9.78652 2.3301C10.0009 2.3301 10.2525 2.3301 10.4855 2.36738L10.6906 2.39068C10.8537 2.39068 11.0215 2.43728 11.1799 2.46524L11.3896 2.50718C11.5605 2.54447 11.7283 2.58796 11.8929 2.63767L12.042 2.67961C12.4838 2.82089 12.9114 3.00344 13.3189 3.22485H13.3562C13.5488 3.33049 13.7353 3.44388 13.9154 3.56505L13.9714 3.60233C14.357 3.86508 14.7174 4.16306 15.0479 4.49243L12.1166 7.45631H19.5729V0L16.7069 2.87068L16.623 2.79612C16.4599 2.63301 16.2875 2.47922 16.1104 2.3301L15.9659 2.20427C15.501 1.82204 15.0018 1.48352 14.4747 1.19301L14.3349 1.12311C14.1205 1.01126 13.9061 0.904077 13.6824 0.806213L13.4215 0.699029C13.2304 0.624466 13.0393 0.549902 12.8483 0.48932L12.5407 0.396117C12.3496 0.340194 12.1586 0.293593 11.9675 0.246991L11.6506 0.181747C11.4455 0.144466 11.2358 0.111845 11.0261 0.0838836L10.7186 0.0466021C10.411 0.018641 10.0987 0 9.78652 0C9.47428 0 9.19933 6.94423e-08 8.9104 0.0419418L8.62147 0.0792233C8.4304 0.0792233 8.24399 0.121165 8.05758 0.158447L7.71739 0.23301C7.55428 0.270291 7.38652 0.302913 7.22807 0.344854L6.87389 0.452038C6.72477 0.49864 6.57564 0.545243 6.40788 0.596505L6.0537 0.740971C5.91389 0.796893 5.77409 0.852815 5.63894 0.918058L5.28943 1.09515C5.15894 1.16039 5.03312 1.23029 4.90729 1.30019L4.5671 1.5099C4.44593 1.58447 4.32943 1.66369 4.21292 1.74291L3.88671 1.98058L3.55584 2.23689L3.24826 2.50252L2.94535 2.78214L2.65642 3.07573L2.38147 3.37864C2.29292 3.48116 2.20438 3.58835 2.11584 3.69553C2.02729 3.80272 1.94807 3.9099 1.86885 4.02175C1.78962 4.13359 1.70574 4.24544 1.63118 4.35728C1.55661 4.46913 1.48205 4.59029 1.41215 4.7068C1.34224 4.8233 1.27234 4.93981 1.20244 5.06097C1.13253 5.18214 1.07195 5.30796 1.01137 5.43379C0.950787 5.55961 0.890205 5.67612 0.834283 5.80194C0.778361 5.92777 0.722438 6.06757 0.671176 6.20272C0.619914 6.33786 0.573311 6.44971 0.526709 6.57553C0.480107 6.70136 0.433506 6.86447 0.391564 7.01359C0.349622 7.16272 0.317001 7.25592 0.28438 7.38175V7.46097C0.228458 7.68932 0.172535 7.92699 0.135254 8.16L2.51661 8.15534Z" fill="#31ACB8"/>
</svg>
