<svg width="24" height="24" viewBox="0 0 24 24" xmlns="http://www.w3.org/2000/svg">
<path d="M9 10H10C10.2652 10 10.5196 9.89464 10.7071 9.70711C10.8946 9.51957 11 9.26522 11 9C11 8.73478 10.8946 8.48043 10.7071 8.29289C10.5196 8.10536 10.2652 8 10 8H9C8.73478 8 8.48043 8.10536 8.29289 8.29289C8.10536 8.48043 8 8.73478 8 9C8 9.26522 8.10536 9.51957 8.29289 9.70711C8.48043 9.89464 8.73478 10 9 10ZM14.2105 12.3862L12.5371 14.5381L11.669 13.7568C11.5677 13.6657 11.4489 13.5962 11.3199 13.5526C11.1908 13.5091 11.0543 13.4923 10.9185 13.5034C10.7827 13.5145 10.6507 13.5533 10.5304 13.6172C10.4102 13.6812 10.3043 13.7691 10.2192 13.8755L8.21924 16.3755C8.13666 16.478 8.07512 16.5957 8.03815 16.722C8.00118 16.8483 7.98951 16.9807 8.00382 17.1115C8.01812 17.2424 8.05811 17.3691 8.1215 17.4844C8.18488 17.5997 8.27042 17.7014 8.37319 17.7836C8.47597 17.8658 8.59396 17.9269 8.7204 17.9634C8.84684 17.9999 8.97925 18.0111 9.11002 17.9963C9.24079 17.9816 9.36736 17.9411 9.48246 17.8773C9.59756 17.8135 9.69893 17.7276 9.78076 17.6245L11.1187 15.9521L11.9976 16.7431C12.0997 16.8351 12.2196 16.905 12.3499 16.9485C12.4802 16.992 12.6181 17.0082 12.755 16.9961C12.8918 16.9839 13.0247 16.9437 13.1453 16.8779C13.266 16.8121 13.3717 16.7222 13.456 16.6137L15.7895 13.6137C15.9523 13.4043 16.0253 13.1388 15.9923 12.8757C15.9593 12.6125 15.8232 12.3732 15.6138 12.2104C15.5101 12.1298 15.3915 12.0704 15.2649 12.0356C15.1383 12.0009 15.006 11.9914 14.8757 12.0077C14.6125 12.0406 14.3732 12.1768 14.2105 12.3862V12.3862ZM19.9876 8.93829C19.9745 8.6972 19.8753 8.46879 19.7082 8.29456L19.7067 8.29266L13.7073 2.29327L13.7055 2.29181C13.6222 2.2113 13.5253 2.14604 13.4194 2.099C13.3895 2.085 13.3584 2.07709 13.327 2.066C13.241 2.03578 13.1513 2.01766 13.0603 2.01217C13.0392 2.01086 13.0214 2 13 2H7C6.20462 2.00087 5.44206 2.31722 4.87964 2.87964C4.31722 3.44206 4.00087 4.20462 4 5V19C4.00087 19.7954 4.31722 20.5579 4.87964 21.1204C5.44206 21.6828 6.20462 21.9991 7 22H17C17.7954 21.9991 18.5579 21.6828 19.1204 21.1204C19.6828 20.5579 19.9991 19.7954 20 19V9C20 8.97809 19.989 8.95984 19.9876 8.93829ZM14 5.41406L16.5859 8H15C14.7349 7.99966 14.4807 7.89419 14.2933 7.70673C14.1058 7.51927 14.0003 7.26511 14 7V5.41406ZM18 19C17.9997 19.2651 17.8942 19.5193 17.7067 19.7067C17.5193 19.8942 17.2651 19.9997 17 20H7C6.73489 19.9997 6.48073 19.8942 6.29327 19.7067C6.10581 19.5193 6.00034 19.2651 6 19V5C6.00034 4.73489 6.10581 4.48073 6.29327 4.29327C6.48073 4.10581 6.73489 4.00034 7 4H12V7C12.0009 7.79538 12.3172 8.55794 12.8796 9.12036C13.4421 9.68278 14.2046 9.99913 15 10H18V19Z"/>
</svg>
