<svg width="19" height="20" viewBox="0 0 19 20" xmlns="http://www.w3.org/2000/svg">
<path d="M9.5 20C8.7 20 8 19.6 7.7 18.9H1.1V4C0.4 3.6 0 2.9 0 2.1C0 0.9 0.9 0 2.1 0C3.3 0 4.2 0.9 4.2 2.1C4.2 2.9 3.8 3.6 3.1 3.9V5.7H7.7C8.1 5 8.8 4.6 9.5 4.6C10.7 4.6 11.6 5.5 11.6 6.7C11.6 7.9 10.7 8.8 9.5 8.8C8.7 8.8 8 8.4 7.7 7.7H3.1V11.3H7.6C8 10.6 8.7 10.1 9.5 10.1C10.7 10.1 11.6 11 11.6 12.2C11.6 13.4 10.7 14.3 9.5 14.3C8.8 14.3 8.1 13.9 7.7 13.3H3.1V16.7H7.7C8.1 16 8.8 15.6 9.5 15.6C10.7 15.6 11.6 16.5 11.6 17.7C11.6 18.9 10.7 20 9.5 20Z"/>
<path d="M13.2 18.9V16.9H15V7.99995C14.9 7.99995 14.8 8.09995 14.7 8.09995C14.5 8.09995 14.3 7.99995 14.2 7.89995C13.8 7.59995 13.8 7.09995 14.1 6.69995L15.3 4.99995L15.4 4.89995C15.4 4.89995 15.5 4.79995 15.6 4.79995V4.69995H16.1H16.2C16.3 4.69995 16.3 4.69995 16.3 4.79995C16.4 4.79995 16.4 4.89995 16.4 4.89995L16.6 4.99995L18 6.69995C18.1 6.89995 18.2 7.09995 18.2 7.29995C18.2 7.49995 18.0999 7.69995 17.9 7.89995C17.7 8.09995 17.4999 8.09995 17.4 8.09995C17.3 8.09995 17.1 8.09995 17 7.99995V18.9H13.2Z"/>
</svg>
