<svg width="20" height="20" viewBox="0 0 20 20" fill="none" xmlns="http://www.w3.org/2000/svg">
<path fill-rule="evenodd" clip-rule="evenodd" d="M19.336 5.60799C19 5.96799 18.448 5.96799 18.112 5.60799L15.88 3.27999V18.76C15.88 19.24 15.496 19.624 15.016 19.624C14.536 19.624 14.152 19.24 14.152 18.76V3.27999L11.92 5.60799C11.584 5.96799 11.032 5.96799 10.696 5.60799C10.36 5.24799 10.36 4.67199 10.696 4.31199L14.32 0.495986C14.32 0.495986 14.32 0.495986 14.344 0.471986L14.392 0.423986C14.536 0.255987 14.752 0.159986 14.992 0.159986C15.232 0.159986 15.448 0.255987 15.616 0.423986L19.312 4.31199C19.672 4.67199 19.672 5.24799 19.336 5.60799ZM5.416 19.264L5.344 19.336C5.2 19.504 4.984 19.6 4.744 19.6C4.504 19.6 4.288 19.504 4.12 19.336L0.423997 15.448C0.0879971 15.088 0.0879971 14.512 0.423997 14.152C0.759997 13.792 1.312 13.792 1.648 14.152L3.88 16.48V0.999986C3.88 0.519986 4.264 0.135986 4.744 0.135986C5.224 0.135986 5.608 0.519986 5.608 0.999986V16.48L7.84 14.152C8.176 13.792 8.728 13.792 9.064 14.152C9.4 14.512 9.4 15.088 9.064 15.448L5.416 19.264Z" fill="#31ACB8"/>
</svg>
