<svg width="14" height="14" viewBox="0 0 14 14" fill="none" xmlns="http://www.w3.org/2000/svg">
<path d="M9.06559 7.42251L7.66683 6.61521V3.66665C7.66683 3.48984 7.59659 3.32027 7.47157 3.19524C7.34655 3.07022 7.17698 2.99998 7.00017 2.99998C6.82335 2.99998 6.65379 3.07022 6.52876 3.19524C6.40374 3.32027 6.3335 3.48984 6.3335 3.66665V6.99998C6.33347 7.11703 6.36426 7.23202 6.42277 7.33339C6.48129 7.43476 6.56546 7.51894 6.66683 7.57745L8.39892 8.57745C8.47476 8.62128 8.55849 8.64974 8.64533 8.66119C8.73217 8.67265 8.82041 8.66689 8.90502 8.64423C8.98963 8.62158 9.06895 8.58247 9.13844 8.52915C9.20793 8.47583 9.26624 8.40934 9.31003 8.33348C9.35382 8.25762 9.38223 8.17388 9.39364 8.08704C9.40506 8.00019 9.39925 7.91195 9.37655 7.82735C9.35385 7.74275 9.3147 7.66346 9.26135 7.59399C9.20799 7.52453 9.14147 7.46626 9.06559 7.42251ZM7.00017 0.333313C5.68162 0.333313 4.39269 0.724306 3.29636 1.45685C2.20004 2.18939 1.34555 3.23058 0.840969 4.44876C0.336385 5.66693 0.204362 7.00738 0.461597 8.30058C0.718832 9.59379 1.35377 10.7817 2.28612 11.714C3.21847 12.6464 4.40636 13.2813 5.69956 13.5385C6.99277 13.7958 8.33321 13.6638 9.55139 13.1592C10.7696 12.6546 11.8108 11.8001 12.5433 10.7038C13.2758 9.60745 13.6668 8.31852 13.6668 6.99998C13.6649 5.23247 12.9619 3.53792 11.712 2.28811C10.4622 1.03829 8.76767 0.335279 7.00017 0.333313ZM7.00017 12.3333C5.94533 12.3333 4.91419 12.0205 4.03712 11.4345C3.16006 10.8484 2.47648 10.0155 2.07281 9.04096C1.66914 8.06642 1.56352 6.99406 1.76931 5.9595C1.9751 4.92493 2.48305 3.97462 3.22893 3.22874C3.97481 2.48286 4.92512 1.97491 5.95968 1.76912C6.99425 1.56334 8.0666 1.66895 9.04114 2.07262C10.0157 2.47629 10.8486 3.15988 11.4347 4.03694C12.0207 4.914 12.3335 5.94515 12.3335 6.99998C12.3319 8.41397 11.7695 9.76958 10.7696 10.7694C9.76977 11.7693 8.41416 12.3317 7.00017 12.3333Z" fill="#31ACB8"/>
</svg>
