<svg width="25" height="24" viewBox="0 0 25 24" xmlns="http://www.w3.org/2000/svg">
<path d="M12.9567 11.29C12.8598 11.199 12.7454 11.1276 12.6203 11.08C12.3721 10.98 12.0938 10.98 11.8456 11.08C11.7205 11.1276 11.6062 11.199 11.5092 11.29L9.47051 13.29C9.27856 13.4783 9.17073 13.7337 9.17073 14C9.17073 14.2663 9.27856 14.5217 9.47051 14.71C9.66246 14.8983 9.9228 15.0041 10.1943 15.0041C10.4657 15.0041 10.726 14.8983 10.918 14.71L11.2136 14.41V17C11.2136 17.2652 11.321 17.5196 11.5122 17.7071C11.7033 17.8946 11.9626 18 12.233 18C12.5033 18 12.7626 17.8946 12.9538 17.7071C13.1449 17.5196 13.2523 17.2652 13.2523 17V14.41L13.5479 14.71C13.6427 14.8037 13.7554 14.8781 13.8797 14.9289C14.0039 14.9797 14.1371 15.0058 14.2717 15.0058C14.4062 15.0058 14.5395 14.9797 14.6637 14.9289C14.7879 14.8781 14.9007 14.8037 14.9954 14.71C15.091 14.617 15.1668 14.5064 15.2185 14.3846C15.2703 14.2627 15.2969 14.132 15.2969 14C15.2969 13.868 15.2703 13.7373 15.2185 13.6154C15.1668 13.4936 15.091 13.383 14.9954 13.29L12.9567 11.29ZM20.3878 8.94C20.3772 8.84813 20.3567 8.75763 20.3266 8.67V8.58C20.2776 8.47718 20.2123 8.38267 20.133 8.3L14.0168 2.3C13.9326 2.22222 13.8362 2.15808 13.7314 2.11H13.6295C13.5304 2.058 13.4238 2.02092 13.3135 2H7.13619C6.32514 2 5.54731 2.31607 4.97381 2.87868C4.40031 3.44129 4.07813 4.20435 4.07812 5V19C4.07812 19.7956 4.40031 20.5587 4.97381 21.1213C5.54731 21.6839 6.32514 22 7.13619 22H17.3297C18.1408 22 18.9186 21.6839 19.4921 21.1213C20.0656 20.5587 20.3878 19.7956 20.3878 19V9C20.3878 9 20.3878 9 20.3878 8.94ZM14.2717 5.41L16.9118 8H15.291C15.0207 8 14.7614 7.89464 14.5702 7.70711C14.3791 7.51957 14.2717 7.26522 14.2717 7V5.41ZM18.3491 19C18.3491 19.2652 18.2417 19.5196 18.0505 19.7071C17.8594 19.8946 17.6001 20 17.3297 20H7.13619C6.86584 20 6.60656 19.8946 6.4154 19.7071C6.22423 19.5196 6.11683 19.2652 6.11683 19V5C6.11683 4.73478 6.22423 4.48043 6.4154 4.29289C6.60656 4.10536 6.86584 4 7.13619 4H12.233V7C12.233 7.79565 12.5552 8.55871 13.1286 9.12132C13.7021 9.68393 14.48 10 15.291 10H18.3491V19Z"/>
</svg>
