<svg width="20" height="20" viewBox="0 0 20 20" xmlns="http://www.w3.org/2000/svg">
<path d="M10 0C4.48597 0 0 4.48597 0 10C0 15.514 4.48597 20 10 20C15.514 20 20 15.514 20 10C20 4.48597 15.514 0 10 0ZM10 18.5635C5.27801 18.5635 1.43646 14.722 1.43646 10C1.43646 5.27801 5.27801 1.43646 10 1.43646C14.722 1.43646 18.5635 5.27801 18.5635 10C18.5635 14.722 14.722 18.5635 10 18.5635ZM10 2.39425C9.60331 2.39425 9.28177 2.7158 9.28177 3.11249V9.69414L5.70851 13.1288C5.42254 13.4035 5.41348 13.8583 5.6884 14.1443C5.82939 14.291 6.01768 14.3649 6.20619 14.3649C6.38541 14.3649 6.56464 14.2983 6.70387 14.1644L10.4977 10.5178C10.6387 10.3823 10.7182 10.1954 10.7182 10V3.11249C10.7182 2.7158 10.3967 2.39425 10 2.39425Z"/>
</svg>
